<?xml version="1.0" standalone="no"?>
<!DOCTYPE svg PUBLIC "-//W3C//DTD SVG 20010904//EN"
 "http://www.w3.org/TR/2001/REC-SVG-20010904/DTD/svg10.dtd">
<svg version="1.0" xmlns="http://www.w3.org/2000/svg"
 width="380.000000pt" height="380.000000pt" viewBox="0 0 380.000000 380.000000"
 preserveAspectRatio="xMidYMid meet">
<metadata>
Created by potrace 1.11, written by Peter Selinger 2001-2013
</metadata>
<g transform="translate(0.000000,380.000000) scale(0.100000,-0.100000)"
fill="#000000" stroke="none">
<path d="M0 3767 c0 -24 3 -28 12 -19 9 9 16 6 30 -16 25 -38 23 -64 -2 -34
-11 13 -24 21 -30 17 -14 -8 -13 -56 1 -52 6 1 14 -4 17 -12 3 -10 0 -12 -13
-7 -15 5 -16 4 -5 -9 14 -17 29 -19 50 -5 13 8 12 11 -5 24 -28 21 -16 20 33
-4 48 -23 51 -30 21 -49 -20 -12 -21 -11 -16 8 7 26 -9 27 -25 2 -9 -15 -19
-18 -40 -14 -17 3 -28 1 -28 -6 0 -6 8 -10 18 -9 41 3 55 -2 43 -15 -8 -10 -7
-14 4 -14 8 0 15 7 15 15 0 9 3 12 7 9 3 -4 17 0 29 8 13 8 29 13 36 12 7 -2
10 -2 6 0 -16 9 -8 32 9 26 11 -4 14 -3 9 6 -5 7 -14 10 -22 7 -9 -3 -18 2
-21 12 -4 9 -11 20 -17 24 -6 4 -1 10 12 15 21 8 21 10 7 28 -12 16 -14 17 -9
3 3 -10 1 -18 -5 -18 -6 0 -11 14 -11 30 0 23 -4 30 -20 30 -13 0 -18 -5 -14
-15 4 -8 2 -15 -3 -15 -5 0 -14 14 -20 31 -12 30 -11 31 12 25 13 -3 26 -2 29
2 3 5 -17 9 -45 9 -48 1 -49 1 -49 -30z"/>
<path d="M120 3790 c0 -5 5 -10 10 -10 6 0 10 5 10 10 0 6 -4 10 -10 10 -5 0
-10 -4 -10 -10z"/>
<path d="M165 3790 c-3 -6 1 -7 9 -4 18 7 21 14 7 14 -6 0 -13 -4 -16 -10z"/>
<path d="M221 3778 c9 -17 9 -23 0 -26 -8 -3 -7 -8 4 -16 9 -7 21 -32 26 -57
5 -24 15 -70 22 -101 8 -32 10 -58 6 -58 -5 0 -9 -5 -9 -11 0 -5 4 -7 10 -4
15 9 12 -1 -4 -14 -12 -10 -18 -7 -32 13 -12 19 -13 30 -6 39 14 17 8 67 -9
78 -21 13 -33 11 -22 -3 6 -7 13 -26 17 -43 l6 -30 -19 23 c-24 27 -26 27 -28
0 -1 -13 6 -32 15 -43 10 -11 25 -35 35 -52 18 -32 18 -33 -2 -33 -14 0 -21 6
-21 20 0 11 -4 20 -9 20 -11 0 -26 -20 -26 -34 0 -17 -78 -38 -102 -27 -17 8
-22 6 -26 -8 -3 -14 2 -17 32 -14 20 1 51 5 69 8 22 4 32 2 32 -7 1 -8 5 -7
14 5 14 18 56 23 84 8 9 -5 25 -12 35 -15 9 -3 17 -13 17 -22 0 -16 -2 -16
-20 1 -12 11 -20 13 -20 6 0 -6 11 -16 24 -22 14 -7 27 -23 31 -37 7 -30 68
-156 84 -176 7 -8 11 -18 9 -22 -1 -5 15 -26 36 -47 40 -39 44 -58 8 -36 -12
7 -23 21 -25 31 -3 10 -10 18 -16 18 -9 0 -9 -5 -1 -21 7 -11 9 -27 6 -35 -3
-8 -2 -12 3 -9 16 10 22 -13 9 -34 -10 -16 -10 -23 0 -33 16 -16 16 -68 0 -69
-7 0 -3 -4 8 -9 19 -7 21 -14 17 -53 -4 -34 -2 -45 10 -50 13 -5 15 0 10 29
-3 20 0 45 7 59 11 20 11 27 0 40 -18 22 -6 30 14 9 10 -9 14 -24 11 -35 -4
-11 -2 -19 4 -19 6 0 11 5 11 11 0 5 4 8 9 4 5 -3 13 0 17 6 4 7 3 9 -4 5 -6
-3 -13 -2 -16 3 -4 5 -2 12 4 16 5 3 10 16 10 28 0 19 9 13 54 -33 29 -30 69
-69 89 -87 21 -17 37 -37 37 -43 0 -7 7 -10 15 -7 8 4 22 -4 34 -18 10 -14 22
-25 26 -25 11 0 76 -52 85 -70 6 -10 2 -42 -11 -90 -10 -40 -19 -91 -19 -111
0 -67 -41 -69 -102 -6 -22 23 -47 52 -55 64 -9 13 -22 23 -30 23 -11 0 -14 7
-10 21 4 15 2 18 -7 10 -9 -7 -16 -7 -24 1 -17 17 -15 28 6 28 16 1 16 1 0 11
-28 16 -41 48 -27 65 8 10 8 14 0 14 -6 0 -11 -4 -11 -10 0 -5 -7 -10 -16 -10
-8 0 -13 4 -10 8 3 5 0 26 -6 48 -6 21 -11 45 -9 52 1 6 -2 19 -7 28 -7 13
-10 10 -15 -14 -6 -29 -32 -46 -67 -43 -8 1 2 -8 23 -19 36 -20 47 -42 27 -55
-15 -9 -2 -25 14 -19 9 4 20 -11 32 -43 21 -56 62 -102 74 -82 5 7 8 3 7 -12
0 -13 2 -30 4 -38 2 -8 -4 -17 -13 -19 -10 -2 -18 1 -18 7 0 5 -5 22 -10 36
-9 23 -13 25 -25 15 -13 -11 -13 -14 2 -26 16 -12 15 -14 -15 -20 -37 -8 -51
-22 -31 -35 7 -4 10 -11 6 -15 -4 -4 -2 -13 4 -20 7 -8 7 -14 -1 -19 -8 -5 -6
-13 6 -26 17 -19 17 -20 -1 -13 -14 6 -16 4 -10 -7 5 -8 5 -11 -1 -6 -5 5 -9
14 -9 20 0 7 -7 12 -15 12 -8 1 -14 6 -13 13 2 7 -9 12 -27 12 -17 0 -30 4
-30 9 0 5 16 8 35 7 36 -3 54 7 35 19 -17 10 -52 96 -46 112 4 9 -1 17 -14 20
-21 6 -28 47 -10 58 6 4 7 11 4 17 -13 21 -36 -42 -29 -82 4 -23 2 -41 -4 -45
-6 -3 -11 2 -11 12 -1 39 -12 98 -20 107 -5 5 -15 2 -24 -7 -11 -11 -12 -17
-4 -19 9 -3 9 -6 0 -12 -7 -4 -14 3 -18 20 -4 17 -2 29 6 34 7 4 9 13 5 21 -6
9 -14 5 -31 -16 -23 -29 -47 -27 -38 3 5 14 4 14 -4 2 -9 -12 -12 -10 -20 11
-11 28 -42 58 -42 40 0 -6 -11 -11 -25 -11 -14 0 -25 5 -25 10 0 6 -5 10 -12
10 -6 0 -2 -10 10 -23 25 -26 28 -43 10 -50 -7 -2 -10 -8 -6 -12 4 -4 13 -3
20 2 7 5 28 9 47 9 29 -1 36 -6 42 -28 5 -19 3 -31 -7 -39 -20 -17 -18 -61 2
-57 10 2 19 -3 22 -11 3 -11 0 -12 -14 -6 -46 18 -54 18 -54 -5 0 -17 -4 -21
-20 -17 -11 3 -20 1 -20 -4 0 -5 5 -9 10 -9 6 0 10 -7 10 -15 0 -23 17 -18 25
8 6 20 7 20 16 -10 6 -22 17 -35 34 -39 13 -3 27 -15 30 -25 8 -23 42 -26 42
-4 0 9 -6 14 -14 11 -11 -5 -33 21 -33 38 0 13 28 4 45 -14 10 -11 22 -20 27
-20 13 0 9 28 -4 33 -10 4 -10 7 0 18 10 11 12 10 12 -4 0 -9 5 -17 10 -17 6
0 10 5 10 11 0 5 5 7 10 4 6 -3 10 -11 10 -16 0 -6 -4 -7 -10 -4 -5 3 -10 2
-10 -4 0 -5 5 -13 10 -16 16 -10 12 -25 -5 -19 -8 4 -15 1 -15 -5 0 -6 5 -11
10 -11 6 0 10 -11 10 -24 0 -19 -4 -22 -25 -18 -26 5 -32 16 -15 27 5 3 10 10
10 15 0 6 -9 2 -19 -7 -16 -13 -18 -21 -10 -36 11 -19 4 -55 -8 -43 -3 3 -12
-3 -19 -13 -16 -23 -64 -33 -82 -18 -10 8 -16 7 -22 -3 -5 -8 -12 -11 -16 -7
-4 3 -1 13 6 22 10 12 10 18 0 30 -7 9 -11 17 -9 18 37 24 56 27 84 13 27 -14
30 -14 38 0 10 17 0 34 -11 19 -10 -14 -32 -17 -32 -5 0 15 -44 12 -66 -5 -22
-17 -54 -20 -54 -5 0 6 5 10 10 10 21 0 9 16 -20 27 -21 8 -30 8 -33 -1 -3 -7
-9 -6 -22 4 -17 14 -18 13 -11 -5 5 -11 11 -31 14 -43 3 -18 7 -20 13 -11 6
11 11 11 21 1 9 -9 6 -18 -16 -41 -25 -26 -26 -29 -8 -24 24 6 51 -15 44 -35
-2 -7 5 -12 17 -12 12 0 21 5 21 11 0 5 5 7 10 4 6 -4 17 -1 25 5 12 10 18 10
30 0 12 -10 18 -10 29 -1 10 8 16 9 21 1 9 -15 28 -12 22 4 -10 25 13 36 39
19 25 -16 33 -6 13 14 -9 9 -8 15 3 26 19 19 58 31 58 18 0 -6 10 -11 23 -11
23 0 47 -17 47 -32 0 -4 -6 -8 -14 -8 -8 0 -17 -7 -20 -16 -8 -21 -8 -24 4
-24 6 0 10 6 10 14 0 8 8 17 18 21 16 8 26 10 65 13 23 3 25 62 1 62 -8 0 -13
4 -9 10 3 5 13 6 22 3 10 -4 14 -2 10 4 -3 5 2 19 13 31 11 12 16 23 12 26
-15 9 -6 51 11 54 12 3 15 -1 11 -15 -4 -13 -1 -12 14 6 19 24 42 15 26 -11
-5 -8 -2 -9 9 -5 10 4 17 1 17 -6 0 -7 14 -18 30 -24 17 -6 30 -18 30 -27 0
-9 4 -16 9 -16 4 0 13 -22 18 -50 8 -40 7 -50 -4 -54 -8 -3 -12 -10 -9 -15 3
-5 -18 -12 -46 -15 -41 -6 -55 -4 -63 8 -13 18 -24 12 -54 -31 -12 -18 -25
-32 -29 -32 -20 3 -32 -3 -32 -16 0 -7 -8 -18 -17 -24 -10 -5 -15 -12 -13 -15
3 -3 25 11 49 30 24 19 46 33 48 31 2 -2 -3 -17 -12 -33 -8 -16 -15 -22 -15
-14 -1 11 -5 10 -18 -5 -24 -29 -62 -51 -99 -59 -17 -4 -38 -14 -45 -23 -12
-15 -11 -15 9 -5 32 18 38 15 18 -8 -10 -11 -28 -20 -40 -20 -11 0 -26 -5 -32
-11 -7 -7 -12 -3 -17 16 -4 15 -12 25 -18 23 -19 -7 -21 -28 -4 -28 18 0 21
-15 6 -25 -6 -3 -10 -10 -10 -14 0 -10 48 6 98 31 33 17 62 15 62 -4 0 -6 -7
-8 -15 -4 -17 6 -19 -2 -5 -24 5 -9 5 -19 -2 -27 -6 -7 -8 -22 -5 -33 3 -11 2
-18 -3 -15 -4 3 -10 -7 -13 -20 -4 -25 -4 -25 14 -9 11 9 19 12 19 7 0 -6 -25
-32 -55 -59 -31 -26 -54 -53 -52 -58 2 -6 -13 -32 -35 -58 -35 -42 -37 -48
-21 -56 17 -10 17 -11 -1 -31 -10 -11 -16 -25 -14 -31 2 -7 23 15 46 49 24 34
48 61 53 61 6 0 8 4 5 8 -3 5 8 22 24 37 28 27 44 23 18 -3 -9 -9 -10 -17 -1
-30 12 -19 15 -132 3 -132 -3 0 -7 -6 -7 -12 0 -7 -3 -28 -7 -45 -5 -22 -4
-33 3 -33 6 0 11 -11 11 -24 0 -14 4 -28 10 -31 6 -3 10 4 10 17 0 13 7 43 16
68 8 24 13 52 11 62 -3 10 -1 21 4 24 5 3 5 14 -2 25 -13 26 -3 62 11 39 7
-11 10 -7 10 15 0 19 3 25 8 17 5 -7 6 -35 2 -62 -6 -48 2 -80 20 -80 5 0 7 6
4 14 -3 8 0 17 5 21 6 3 8 11 5 17 -4 6 0 14 7 19 11 7 10 11 -5 22 -14 10
-16 16 -7 21 9 6 9 12 -2 24 -18 21 -28 70 -16 78 5 3 9 22 9 43 0 23 6 44 15
51 13 11 21 8 49 -19 18 -17 35 -28 39 -25 10 10 9 26 -2 20 -5 -3 -29 13 -55
36 -35 32 -43 44 -35 55 8 9 8 13 0 13 -17 0 -13 18 12 53 12 18 23 39 22 47
0 8 7 14 15 13 8 -2 21 7 29 19 11 18 11 20 -3 15 -14 -6 -15 -3 -6 13 6 11
15 20 21 20 6 0 7 -6 3 -12 -6 -10 -4 -10 7 -2 8 6 36 16 62 23 27 6 59 18 71
26 13 8 25 12 29 9 5 -5 12 24 20 83 2 12 6 26 10 29 4 4 7 16 7 26 0 10 5 18
10 18 6 0 10 -5 10 -12 0 -6 3 -8 6 -5 4 4 -1 18 -10 31 -9 14 -16 36 -16 49
0 27 22 51 36 39 4 -4 2 2 -6 12 -14 18 -13 19 3 13 9 -3 17 -3 17 2 0 4 13 8
29 8 20 0 33 -7 40 -21 6 -14 10 -16 10 -6 0 8 -8 26 -19 40 -16 21 -20 22
-20 7 0 -10 -4 -16 -10 -12 -5 3 -7 12 -4 20 3 7 -3 18 -15 24 -17 10 -18 15
-9 43 5 18 13 46 17 63 5 22 12 30 30 30 25 0 51 29 38 42 -5 4 -11 3 -15 -3
-4 -6 -19 -14 -35 -18 -25 -6 -27 -5 -21 17 3 14 -2 48 -10 78 -20 65 -20 114
-2 203 14 64 14 71 -2 82 -9 8 -23 14 -29 14 -7 0 -13 5 -13 11 0 6 5 9 11 7
17 -6 82 60 75 77 -3 8 -1 15 4 15 6 0 10 -7 10 -15 0 -17 23 -20 49 -6 13 7
21 5 31 -10 18 -25 30 -24 30 1 0 11 7 20 15 20 8 0 15 5 15 11 0 6 -9 8 -20
4 -34 -11 -22 5 16 21 36 15 37 15 66 -13 19 -18 27 -22 23 -10 -9 21 1 22 22
2 8 -9 23 -13 33 -10 11 3 20 -1 24 -10 3 -9 10 -13 16 -10 6 3 13 -1 16 -9 3
-9 10 -14 14 -11 4 2 18 -4 30 -15 24 -21 60 -27 60 -10 0 6 -7 10 -15 10 -8
0 -15 4 -15 10 0 5 -6 7 -14 4 -9 -3 -16 4 -20 21 -4 14 -11 23 -16 20 -5 -3
-17 -2 -27 3 -104 52 -121 58 -170 57 -30 -1 -68 -10 -89 -21 -35 -19 -35 -19
-52 2 -28 36 -57 39 -77 8 -17 -26 -17 -28 3 -43 20 -16 20 -16 -8 -43 -29
-29 -46 -27 -30 2 7 13 5 21 -4 29 -11 9 -16 5 -24 -19 -13 -37 -40 -50 -57
-27 -13 18 -26 10 -38 -23 -4 -12 -6 -11 -6 3 -1 10 -5 15 -11 12 -5 -3 -10
-1 -10 5 0 7 7 10 14 7 10 -4 13 -1 9 9 -3 7 -14 14 -25 14 -14 0 -18 -5 -13
-19 3 -10 0 -23 -8 -29 -16 -14 -42 1 -32 19 6 9 10 8 16 -7 7 -18 8 -17 8 3
1 27 -15 39 -26 19 -4 -8 -15 -16 -23 -18 -37 -8 -54 -48 -20 -48 13 0 18 5
14 15 -4 8 -1 15 5 15 6 0 11 -7 11 -15 0 -17 31 -20 46 -5 5 5 20 7 33 3 21
-5 23 -10 18 -46 -3 -22 -11 -44 -19 -49 -10 -8 -10 -11 0 -15 6 -2 12 -14 12
-24 0 -11 -4 -18 -9 -14 -5 3 -12 -4 -16 -15 -3 -11 -11 -20 -16 -20 -6 0 -6
-7 1 -19 13 -26 13 -31 -4 -31 -8 0 -16 10 -18 23 -2 13 -9 21 -18 20 -18 -3
-53 54 -39 62 5 4 7 11 3 16 -3 5 -13 0 -22 -12 l-17 -21 -19 21 c-15 16 -16
21 -5 25 40 13 42 14 19 15 -46 2 -218 239 -205 281 4 11 2 20 -4 20 -6 0 -18
17 -28 38 -9 20 -19 40 -21 45 -2 4 4 7 13 7 9 0 13 5 10 10 -4 6 -11 7 -17 4
-6 -4 -8 -2 -4 4 3 6 -1 17 -10 26 -8 9 -13 20 -10 25 4 5 2 11 -4 13 -22 7
-73 198 -52 198 5 0 22 -7 38 -15 25 -13 30 -13 47 2 15 14 22 15 38 5 15 -10
19 -10 19 2 0 8 5 18 11 21 6 4 9 0 7 -11 -2 -12 2 -18 11 -16 7 2 23 -5 34
-15 19 -18 20 -17 8 4 -8 15 -8 24 0 28 15 10 22 0 23 -38 1 -35 30 -79 59
-90 9 -3 17 -10 17 -16 0 -5 12 -16 26 -26 25 -16 25 -16 15 4 -16 28 -14 33
8 21 26 -13 36 -47 20 -66 -10 -12 -9 -18 4 -32 10 -9 17 -11 17 -5 0 6 -6 14
-12 17 -10 5 -10 7 0 12 15 7 16 56 2 70 -12 12 -3 44 11 44 4 0 6 -8 2 -17
-6 -17 -5 -17 14 0 11 9 23 14 26 10 4 -3 7 -1 7 5 0 27 22 9 40 -32 16 -39
18 -86 2 -86 -3 0 -20 11 -38 25 -32 25 -51 22 -34 -5 5 -8 4 -22 -2 -33 -5
-10 -7 -28 -5 -39 7 -26 -2 -48 -19 -48 -8 0 -14 -4 -14 -8 0 -19 33 -7 43 15
10 23 27 31 27 13 0 -5 11 -12 24 -16 13 -3 26 -14 29 -25 5 -20 27 -27 27 -8
0 5 -4 7 -10 4 -5 -3 -10 1 -10 10 0 11 5 15 16 11 8 -3 13 -2 9 3 -3 5 1 12
7 14 9 4 4 14 -15 31 -25 23 -26 27 -11 33 9 3 26 1 37 -6 17 -11 19 -11 13 4
-5 14 -3 15 6 7 10 -8 13 -3 15 21 0 18 -1 26 -4 20 -2 -7 -13 -13 -24 -13
-10 0 -19 -4 -19 -10 0 -5 -5 -10 -11 -10 -6 0 -9 7 -5 15 3 8 0 15 -6 15 -7
0 -7 4 0 13 6 7 7 18 3 25 -4 8 -6 24 -4 37 4 17 -1 25 -16 30 -12 3 -21 11
-21 16 0 5 -7 9 -15 9 -8 0 -15 5 -15 11 0 5 5 7 10 4 6 -3 10 -2 10 3 0 6 -7
12 -15 16 -8 3 -15 17 -15 30 0 30 -42 82 -58 72 -7 -4 -12 -12 -12 -17 0 -6
5 -7 10 -4 14 9 12 -19 -2 -33 -16 -16 4 -16 21 1 11 10 13 9 8 -5 -3 -10 -2
-20 3 -23 17 -11 11 -24 -15 -31 -18 -4 -25 -13 -25 -29 0 -22 -17 -35 -46
-35 -19 0 -18 25 2 44 21 22 11 34 -26 28 -22 -3 -30 0 -30 11 0 9 10 15 25
15 14 0 29 2 32 6 10 10 -19 37 -34 32 -8 -3 -11 -1 -8 4 3 6 14 10 23 10 15
0 15 1 0 13 -9 6 -19 23 -21 37 -4 16 -5 13 -4 -10 2 -31 -1 -35 -21 -33 -27
3 -28 -4 -4 -31 17 -21 17 -21 -4 -3 -17 14 -27 16 -48 7 -34 -13 -33 -13 -40
6 -3 8 -2 12 4 9 14 -9 12 8 -4 30 -13 18 -14 18 -25 -3 -11 -21 -13 -21 -36
-6 -30 19 -34 39 -5 24 11 -6 20 -7 20 -2 0 14 -35 42 -53 42 -23 0 -21 9 5
31 l21 19 -21 0 c-14 0 -22 -6 -22 -17 -1 -16 -2 -16 -15 1 -8 11 -18 17 -22
13 -3 -4 2 -17 13 -28 14 -16 15 -23 7 -26 -7 -3 -13 -9 -13 -15 0 -6 7 -8 15
-4 18 6 20 -10 3 -20 -6 -4 -17 1 -25 11 -7 11 -13 14 -13 8 0 -7 4 -14 9 -17
13 -8 1 -56 -14 -56 -8 0 -17 15 -21 33 -11 42 -11 46 -13 85 -1 29 -4 32 -31
32 -29 0 -30 -2 -19 -22z m83 -331 c13 -20 5 -30 -18 -21 -9 3 -16 15 -16 26
0 22 18 20 34 -5z m490 -53 c3 -8 2 -12 -4 -9 -5 3 -21 -2 -35 -11 -31 -20
-33 -12 -3 16 26 24 34 25 42 4z m-4 -49 c0 -8 -4 -15 -10 -15 -5 0 -10 7 -10
15 0 8 5 15 10 15 6 0 10 -7 10 -15z m36 -21 c-3 -8 -11 -12 -17 -8 -8 4 -7 9
2 15 8 5 10 9 6 9 -5 0 -5 5 -1 12 10 16 18 -7 10 -28z m180 -171 c-10 -10
-19 5 -10 18 6 11 8 11 12 0 2 -7 1 -15 -2 -18z m39 -13 c3 -5 1 -10 -4 -10
-6 0 -11 5 -11 10 0 6 2 10 4 10 3 0 8 -4 11 -10z m-135 -75 c0 -8 -7 -15 -16
-15 -14 0 -14 3 -4 15 7 8 14 15 16 15 2 0 4 -7 4 -15z m-60 -16 c0 -5 -4 -9
-10 -9 -5 0 -10 7 -10 16 0 8 5 12 10 9 6 -3 10 -10 10 -16z m12 -31 c-6 -6
-16 -7 -22 -3 -9 6 -9 9 1 16 17 10 34 0 21 -13z m81 -15 c-7 -3 -13 -11 -13
-19 0 -8 -4 -14 -10 -14 -15 0 -12 11 7 32 9 10 19 15 22 12 3 -4 0 -9 -6 -11z
m-453 -9 c0 -8 -5 -12 -10 -9 -6 4 -8 11 -5 16 9 14 15 11 15 -7z m359 -6 c11
-18 11 -22 -3 -30 -9 -5 -16 -22 -16 -38 0 -23 3 -27 21 -23 12 4 18 11 15 20
-3 8 -1 11 4 8 12 -8 12 -8 1 33 -9 28 -7 32 10 32 16 0 19 -4 14 -21 -6 -19
-4 -21 14 -16 21 5 21 4 16 -86 -2 -51 -5 -104 -5 -119 0 -37 -12 -35 -71 8
-40 29 -47 39 -40 53 10 19 9 82 -3 118 -5 15 -1 27 15 42 13 12 17 21 11 21
-7 0 -12 5 -12 10 0 17 15 11 29 -12z m-317 -23 c-2 -14 -8 -22 -13 -19 -13 8
-11 32 4 37 6 3 13 6 13 6 1 1 -1 -10 -4 -24z m-262 -302 c0 -5 -5 -15 -11
-23 -9 -13 -10 -13 -6 2 3 9 1 19 -6 22 -7 2 -4 5 6 5 9 1 17 -2 17 -6z m68
-141 c3 -9 -2 -13 -14 -10 -9 1 -19 9 -22 16 -3 9 2 13 14 10 9 -1 19 -9 22
-16z m637 -62 c3 -6 -1 -13 -10 -16 -19 -8 -30 0 -20 15 8 14 22 14 30 1z
m-365 -91 c0 -10 -4 -19 -10 -19 -5 0 -10 12 -10 26 0 14 4 23 10 19 6 -3 10
-15 10 -26z m-102 -28 c3 -10 0 -12 -11 -8 -9 3 -19 1 -23 -4 -4 -7 -10 -7
-16 -1 -6 6 -7 15 -3 22 9 15 47 9 53 -9z m-324 -26 c-4 -8 -10 -15 -14 -15
-4 0 -13 7 -20 15 -11 13 -8 15 13 15 19 0 25 -4 21 -15z m386 -15 c0 -5 -5
-10 -11 -10 -5 0 -7 5 -4 10 3 6 8 10 11 10 2 0 4 -4 4 -10z m-360 -25 c0 -8
-4 -15 -10 -15 -5 0 -10 -7 -10 -15 0 -8 -4 -15 -10 -15 -14 0 -13 33 2 48 16
16 28 15 28 -3z m667 -41 c-3 -3 -12 -4 -19 -1 -8 3 -5 6 6 6 11 1 17 -2 13
-5z m-160 -76 c-3 -8 -6 -5 -6 6 -1 11 2 17 5 13 3 -3 4 -12 1 -19z m6 -43
c-3 -9 -8 -14 -10 -11 -3 3 -2 9 2 15 9 16 15 13 8 -4z m-113 -115 c-19 -12
-21 -12 -40 0 -8 5 -11 13 -6 17 5 4 11 2 13 -5 3 -6 9 -10 13 -7 5 3 6 13 3
23 -5 16 -4 16 13 -1 16 -15 17 -19 4 -27z m-39 -143 c-10 -9 -11 -8 -5 6 3
10 9 15 12 12 3 -3 0 -11 -7 -18z m-65 -89 c-9 -13 -32 -46 -51 -74 -23 -34
-45 -56 -67 -63 l-33 -12 42 43 c22 24 58 62 79 86 40 45 57 56 30 20z"/>
<path d="M854 2882 c-19 -13 -24 -40 -8 -46 8 -3 17 1 20 9 8 21 1 46 -12 37z"/>
<path d="M590 3791 c0 -6 4 -13 10 -16 6 -3 7 1 4 9 -7 18 -14 21 -14 7z"/>
<path d="M629 3778 c5 -13 16 -24 25 -26 14 -3 15 0 5 22 -15 33 -42 36 -30 4z"/>
<path d="M765 3789 c4 -6 9 -8 12 -5 3 3 21 -1 40 -9 49 -21 60 -19 33 5 -24
21 -97 29 -85 9z"/>
<path d="M870 3789 c0 -5 5 -7 10 -4 6 3 10 8 10 11 0 2 -4 4 -10 4 -5 0 -10
-5 -10 -11z"/>
<path d="M1846 3792 c6 -4 14 -16 18 -27 5 -13 10 -15 13 -7 3 6 14 13 26 13
17 1 18 2 5 6 -10 2 -18 9 -18 14 0 5 -12 9 -27 9 -16 0 -23 -4 -17 -8z"/>
<path d="M2098 3793 c7 -3 16 -2 19 1 4 3 -2 6 -13 5 -11 0 -14 -3 -6 -6z"/>
<path d="M2150 3781 c0 -11 -3 -27 -6 -35 -4 -12 -2 -15 9 -10 11 4 17 -2 19
-18 4 -20 5 -19 14 11 5 19 14 36 20 38 12 4 37 -53 29 -67 -3 -5 -4 -10 0
-10 3 0 11 12 17 28 l12 27 4 -30 c2 -16 8 -34 13 -39 14 -15 11 -36 -5 -36
-8 0 -16 6 -18 12 -3 9 -10 8 -22 -5 -27 -26 -51 -36 -65 -27 -17 10 -5 30 19
30 10 0 20 7 24 15 4 12 0 14 -22 9 -15 -4 -31 -13 -35 -21 -4 -7 -14 -13 -20
-13 -18 0 -48 -38 -37 -45 6 -4 13 1 16 9 9 23 27 20 19 -3 -7 -23 13 -39 21
-17 8 20 24 21 24 1 0 -8 5 -15 10 -15 20 0 10 -38 -11 -43 -17 -4 -19 -3 -10
6 17 17 13 28 -6 18 -10 -5 -27 -12 -38 -16 -19 -6 -19 -7 -2 -16 9 -6 17 -21
17 -34 0 -28 17 -42 33 -26 16 16 23 14 24 -9 2 -17 -4 -20 -38 -18 -47 2 -51
-2 -33 -26 12 -17 16 -17 31 -5 9 8 14 9 10 3 -4 -8 3 -12 21 -13 53 -1 62 -2
62 -11 0 -5 12 -8 28 -6 15 1 42 -6 60 -16 18 -10 38 -16 43 -12 5 3 32 -8 60
-26 27 -17 55 -27 61 -24 6 4 8 3 5 -3 -4 -6 1 -14 10 -18 10 -3 19 -1 21 4 2
6 8 11 13 11 14 0 11 -28 -3 -33 -9 -4 -8 -6 2 -7 8 0 35 -26 60 -56 32 -39
49 -52 62 -48 20 6 25 -12 6 -19 -18 -6 103 -241 125 -245 10 -2 17 3 17 11 0
18 62 29 72 14 4 -6 11 -8 15 -3 4 5 2 11 -4 13 -21 8 -14 26 7 20 21 -5 28 7
10 18 -17 11 -11 24 15 31 14 3 23 9 21 13 -3 4 5 8 17 8 19 2 18 0 -8 -22
-17 -13 -27 -27 -23 -31 4 -4 14 -1 22 5 13 11 42 4 65 -15 2 -2 -6 -15 -18
-30 -16 -21 -18 -29 -9 -35 7 -4 16 -5 21 -2 5 3 4 -4 -2 -15 -6 -12 -16 -24
-21 -27 -16 -10 -12 -35 6 -35 8 0 12 -4 9 -10 -11 -18 -33 -11 -64 21 -25 25
-32 28 -37 15 -9 -24 -27 -19 -21 5 4 16 3 18 -9 8 -30 -24 -5 -83 27 -64 5 4
6 -1 3 -9 -3 -9 -11 -16 -16 -16 -6 0 -5 -6 2 -15 10 -12 16 -13 26 -4 11 9
14 8 14 -5 0 -9 -8 -16 -20 -16 -11 0 -20 -4 -20 -10 0 -21 -20 -9 -26 15 -3
14 -12 25 -20 25 -16 0 -19 -16 -4 -25 6 -3 10 -15 10 -26 0 -15 5 -19 18 -15
39 12 81 -61 52 -90 -7 -7 -8 -19 -1 -36 11 -31 6 -38 -26 -38 -24 0 -24 -2
-19 -62 3 -35 5 -88 6 -118 0 -38 3 -50 10 -40 10 17 15 14 24 -16 4 -13 1
-26 -9 -34 -21 -17 -20 -79 1 -87 10 -4 22 1 29 11 10 13 14 14 18 3 3 -8 0
-20 -6 -26 -9 -9 -8 -11 5 -6 10 4 26 -1 39 -14 30 -28 41 -26 29 5 -13 32
-12 37 0 29 6 -3 10 -1 10 5 0 6 10 8 26 4 20 -5 26 -2 31 15 5 21 5 21 24 -3
23 -29 25 -56 4 -56 -22 0 -38 -35 -21 -49 19 -16 27 -61 10 -54 -7 2 -18 -6
-25 -19 -11 -21 -11 -22 5 -9 22 18 34 6 18 -19 -14 -23 -15 -30 -4 -29 21 4
32 -3 32 -18 0 -13 3 -14 12 -5 18 18 41 15 34 -4 -5 -13 -2 -15 14 -11 11 3
20 1 20 -3 0 -14 -42 -40 -53 -33 -5 3 -8 0 -5 -8 5 -14 35 -19 53 -8 18 12
65 19 65 11 0 -4 -9 -18 -21 -31 -16 -16 -18 -25 -10 -35 8 -9 8 -22 1 -40 -9
-25 -8 -26 14 -20 22 5 25 2 28 -28 4 -41 38 -54 38 -14 0 14 5 28 10 31 6 3
10 -4 10 -16 0 -22 0 -22 15 -3 9 12 14 14 15 6 0 -8 10 -22 23 -32 19 -16 20
-22 10 -39 -19 -30 -16 -37 7 -16 19 17 20 17 20 0 0 -11 5 -15 16 -11 8 3 12
2 9 -4 -11 -18 17 -11 31 8 13 16 13 16 14 -2 0 -15 6 -18 33 -13 26 4 38 0
55 -18 12 -12 22 -25 22 -29 0 -3 15 -21 33 -40 33 -34 34 -34 50 -15 9 10 21
19 26 19 15 0 26 -23 13 -28 -7 -2 -12 -10 -12 -18 0 -8 -5 -14 -11 -14 -6 0
-8 7 -5 16 4 10 1 14 -6 12 -23 -8 -18 -24 12 -41 16 -10 33 -17 37 -15 5 2 9
-7 11 -19 2 -13 10 -23 18 -23 12 0 14 75 14 491 l0 491 -25 -4 c-26 -5 -40
13 -23 30 15 15 6 77 -12 78 -8 1 -19 2 -25 4 -5 1 -19 3 -30 4 -13 1 -21 9
-23 26 -2 19 5 30 28 43 17 10 28 22 25 27 -3 4 6 7 19 6 14 0 22 -6 19 -14
-4 -8 3 -11 18 -9 21 3 24 10 27 57 4 60 -11 86 -32 58 -7 -10 -16 -18 -20
-18 -12 0 -6 20 13 39 14 14 22 16 30 8 8 -8 11 -8 11 1 0 7 -4 12 -10 12 -5
0 -10 8 -10 18 -1 16 -1 16 -11 -1 -6 -9 -14 -15 -20 -12 -5 3 -6 -1 -3 -9 8
-21 -3 -20 -27 3 -12 11 -18 24 -15 30 9 14 76 32 90 24 6 -4 5 0 -1 9 -7 8
-10 18 -6 22 12 11 12 40 1 53 -7 9 -7 13 1 13 7 0 11 29 11 86 0 54 -4 83
-10 79 -5 -3 -10 -15 -10 -26 0 -12 -7 -19 -20 -19 -11 0 -20 5 -20 11 0 6 7
8 16 5 14 -5 15 -4 4 9 -7 8 -21 15 -31 15 -10 0 -21 4 -24 10 -4 6 7 8 27 6
63 -8 66 -2 66 154 0 79 -4 142 -9 146 -5 3 -25 -3 -44 -14 -29 -18 -35 -19
-46 -6 -8 10 -9 18 0 27 6 8 8 17 4 21 -4 4 3 9 15 13 12 3 22 9 22 14 0 13
34 11 48 -3 9 -9 12 34 12 195 l0 207 -117 0 c-94 0 -120 -3 -135 -17 -17 -15
-19 -15 -36 0 -17 16 -79 17 -690 17 -656 0 -672 0 -672 -19z m1139 -17 c-14
-18 -24 -11 -15 11 3 9 11 13 16 10 8 -5 7 -11 -1 -21z m-121 -22 c-4 -20 -58
-25 -58 -5 0 7 5 13 10 13 6 0 10 7 10 15 0 13 4 14 21 5 11 -6 19 -19 17 -28z
m172 28 c0 -5 -4 -10 -9 -10 -6 0 -13 5 -16 10 -3 6 1 10 9 10 9 0 16 -4 16
-10z m-56 -46 c9 -24 2 -26 -12 -4 -7 11 -8 20 -3 20 5 0 12 -7 15 -16z m67
-27 c-8 -8 -11 -8 -11 0 0 6 -3 20 -7 30 -7 17 -6 17 11 0 14 -14 16 -21 7
-30z m-1046 4 c-3 -6 -11 -11 -17 -11 -6 0 -6 6 2 15 14 17 26 13 15 -4z m842
-8 c2 -6 -5 -13 -16 -16 -18 -4 -19 0 -12 31 2 8 25 -5 28 -15z m83 -3 c0 -11
-4 -20 -10 -20 -5 0 -10 9 -10 20 0 11 5 20 10 20 6 0 10 -9 10 -20z m-25 -30
c3 -5 1 -10 -4 -10 -6 0 -11 5 -11 10 0 6 2 10 4 10 3 0 8 -4 11 -10z m75 -10
c0 -6 11 -8 25 -4 20 5 24 3 19 -10 -3 -9 -14 -16 -23 -17 -10 0 -11 -2 -3 -6
25 -10 11 -20 -33 -21 -25 -1 -45 2 -45 8 0 5 5 10 11 10 6 0 9 7 5 15 -7 18
15 20 32 3 7 -7 12 -8 12 -2 0 6 -5 15 -12 22 -9 9 -9 12 0 12 7 0 12 -5 12
-10z m-930 -9 c0 -5 -12 -8 -26 -8 -18 0 -22 2 -13 8 18 11 39 11 39 0z m1005
-1 c3 -5 1 -10 -4 -10 -6 0 -11 5 -11 10 0 6 2 10 4 10 3 0 8 -4 11 -10z m100
0 c3 -5 1 -10 -4 -10 -6 0 -11 5 -11 10 0 6 2 10 4 10 3 0 8 -4 11 -10z m-955
-10 c0 -5 -4 -10 -10 -10 -5 0 -10 5 -10 10 0 6 5 10 10 10 6 0 10 -4 10 -10z
m567 -35 c0 -41 -3 -46 -21 -43 -32 5 -35 65 -4 77 13 6 23 10 24 10 0 1 1
-19 1 -44z m428 -15 c8 0 15 -4 15 -10 0 -6 -23 -9 -52 -9 -29 1 -45 3 -35 6
9 2 17 12 17 21 0 12 -3 13 -12 4 -13 -13 -38 2 -38 23 0 25 25 22 58 -6 18
-16 39 -29 47 -29z m55 19 c0 -11 -11 -11 -29 0 -7 5 -10 14 -6 20 5 9 10 9
21 0 8 -6 14 -15 14 -20z m-370 11 c0 -5 -4 -10 -10 -10 -5 0 -10 5 -10 10 0
6 5 10 10 10 6 0 10 -4 10 -10z m-183 -42 c-3 -8 -6 -5 -6 6 -1 11 2 17 5 13
3 -3 4 -12 1 -19z m173 11 c0 -15 -18 -19 -23 -6 -3 8 1 14 9 14 8 0 14 -4 14
-8z m-840 -29 c0 -5 -2 -10 -4 -10 -3 0 -8 5 -11 10 -3 6 -1 10 4 10 6 0 11
-4 11 -10z m930 -9 c0 -25 -20 -38 -21 -14 0 11 -3 13 -6 5 -3 -7 0 -19 7 -26
6 -9 7 -17 2 -20 -11 -6 -68 20 -78 35 -10 17 4 23 21 9 11 -9 15 -9 15 -1 0
10 32 29 53 30 4 1 7 -8 7 -18z m-860 0 c0 -5 -7 -14 -15 -21 -16 -13 -45 -7
-45 9 0 6 6 8 14 5 8 -3 17 -1 21 5 8 13 25 15 25 2z m434 -7 c9 -22 8 -24 -9
-24 -8 0 -15 9 -15 20 0 24 15 27 24 4z m195 -53 l-14 -50 -33 25 c-17 14 -32
34 -32 45 0 28 19 23 26 -6 9 -37 38 -33 31 4 -6 31 11 57 26 42 6 -6 5 -29
-4 -60z m390 58 c33 -12 44 -35 11 -24 -14 4 -20 2 -20 -9 0 -10 6 -13 17 -9
11 4 14 3 9 -5 -4 -7 -17 -12 -28 -12 -12 0 -18 3 -15 7 4 3 -1 11 -10 18 -10
7 -14 19 -10 29 8 19 6 19 46 5z m-1171 -24 c0 -14 -4 -28 -9 -31 -12 -7 -23
22 -15 41 9 24 24 17 24 -10z m82 -5 c0 -5 -4 -10 -10 -10 -5 0 -10 5 -10 10
0 6 5 10 10 10 6 0 10 -4 10 -10z m835 -40 c-9 -14 -25 5 -25 30 0 12 3 12 16
-2 9 -9 13 -21 9 -28z m-865 26 c0 -3 -4 -8 -10 -11 -5 -3 -10 -1 -10 4 0 6 5
11 10 11 6 0 10 -2 10 -4z m130 -21 c-7 -9 -15 -13 -18 -10 -3 2 1 11 8 20 7
9 15 13 18 10 3 -2 -1 -11 -8 -20z m400 -5 c0 -5 -2 -10 -4 -10 -3 0 -8 5 -11
10 -3 6 -1 10 4 10 6 0 11 -4 11 -10z m529 7 c-2 -2 -19 -11 -38 -20 -34 -17
-34 -17 -16 3 10 11 27 20 38 20 11 0 18 -2 16 -3z m-1039 -17 c0 -5 -4 -10
-10 -10 -5 0 -10 5 -10 10 0 6 5 10 10 10 6 0 10 -4 10 -10z m222 -35 c-4 -26
-16 -32 -27 -15 -8 12 13 52 24 46 5 -3 6 -17 3 -31z m548 15 c0 -23 3 -24 30
-10 11 6 29 15 40 20 13 7 20 7 20 0 0 -5 -16 -16 -36 -25 -22 -9 -33 -19 -28
-26 5 -9 10 -7 19 4 11 16 13 15 28 -1 13 -14 13 -20 2 -35 -11 -16 -13 -16
-19 -1 -5 14 -9 14 -22 3 -13 -10 -17 -10 -24 1 -11 18 -37 -2 -42 -31 -2 -11
-7 -18 -13 -17 -5 2 -8 9 -7 17 2 8 -2 18 -10 22 -10 7 -8 11 9 15 23 6 39 36
34 67 -1 9 3 17 8 17 6 0 11 -9 11 -20z m-286 -16 c4 -9 4 -19 1 -22 -7 -8
-35 19 -29 29 8 14 21 11 28 -7z m556 10 c0 -3 -12 -9 -27 -15 -16 -5 -39 -25
-52 -44 -23 -34 -41 -45 -41 -26 0 16 52 72 74 81 25 10 46 12 46 4z m-1120
-12 c0 -15 -11 -21 -27 -15 -12 5 -12 7 -1 14 17 11 28 11 28 1z m490 -28 c0
-8 -4 -14 -10 -14 -5 0 -10 9 -10 21 0 11 5 17 10 14 6 -3 10 -13 10 -21z
m-430 2 c-7 -7 -14 -6 -21 1 -9 9 -7 12 9 10 14 -1 18 -5 12 -11z m486 -14
c-9 -9 -37 8 -31 18 5 8 11 7 21 -1 8 -6 12 -14 10 -17z m142 16 c-3 -7 -12
-14 -21 -16 -12 -2 -15 1 -11 12 7 19 38 22 32 4z m-278 -8 c0 -5 -7 -10 -16
-10 -8 0 -12 5 -9 10 3 6 10 10 16 10 5 0 9 -4 9 -10z m36 -1 c3 -6 0 -17 -7
-25 -12 -11 -14 -9 -14 11 0 26 9 32 21 14z m-65 -31 c10 -18 9 -20 -6 -15 -9
4 -21 7 -26 7 -4 0 -6 7 -3 15 8 21 21 19 35 -7z m1069 12 c0 -5 -4 -10 -10
-10 -5 0 -10 5 -10 10 0 6 5 10 10 10 6 0 10 -4 10 -10z m-700 -74 c0 -5 -10
0 -23 12 -13 12 -29 22 -35 22 -13 0 -16 13 -5 23 8 8 63 -42 63 -57z m-240
14 c0 -5 -7 -10 -15 -10 -8 0 -15 5 -15 10 0 6 7 10 15 10 8 0 15 -4 15 -10z
m660 0 c0 -5 -4 -10 -10 -10 -5 0 -10 5 -10 10 0 6 5 10 10 10 6 0 10 -4 10
-10z m-700 -10 c0 -5 -4 -10 -10 -10 -5 0 -10 5 -10 10 0 6 5 10 10 10 6 0 10
-4 10 -10z m505 -1 c11 -17 -1 -21 -15 -4 -8 9 -8 15 -2 15 6 0 14 -5 17 -11z
m485 7 c0 -3 -4 -8 -10 -11 -5 -3 -10 -1 -10 4 0 6 5 11 10 11 6 0 10 -2 10
-4z m-1095 -26 c3 -5 1 -10 -4 -10 -6 0 -11 5 -11 10 0 6 2 10 4 10 3 0 8 -4
11 -10z m470 -12 c-6 -19 -5 -21 6 -10 18 16 40 15 33 -2 -12 -32 -64 -29 -64
3 0 19 8 31 22 31 5 0 6 -10 3 -22z m260 12 c-3 -5 3 -10 14 -10 14 0 21 -6
21 -20 0 -11 -4 -20 -10 -20 -5 0 -10 -7 -10 -15 0 -8 -4 -15 -10 -15 -5 0
-10 6 -10 14 0 8 -5 16 -11 18 -13 4 -1 58 13 58 5 0 6 -4 3 -10z m-639 -14
c18 -19 18 -26 -1 -26 -8 0 -15 -4 -15 -10 0 -5 -8 -10 -17 -10 -17 1 -17 1 0
14 10 8 15 20 11 30 -8 20 3 21 22 2z m46 -8 c-7 -7 -12 -8 -12 -2 0 6 3 14 7
17 3 4 9 5 12 2 2 -3 -1 -11 -7 -17z m-82 2 c0 -6 -7 -13 -15 -16 -8 -4 -13
-10 -10 -14 3 -5 1 -11 -5 -15 -14 -9 -12 23 3 40 14 17 27 19 27 5z m266 -17
c-10 -10 -19 5 -10 18 6 11 8 11 12 0 2 -7 1 -15 -2 -18z m371 -7 c-4 -9 -11
-16 -17 -16 -11 0 -14 33 -3 44 11 10 26 -11 20 -28z m258 24 c3 -5 -1 -10 -9
-10 -9 0 -16 5 -16 10 0 6 4 10 9 10 6 0 13 -4 16 -10z m180 0 c3 -6 -1 -7 -9
-4 -18 7 -21 14 -7 14 6 0 13 -4 16 -10z m-927 -24 c3 -11 -6 -21 -27 -29 -17
-6 -31 -15 -31 -19 0 -11 -38 -10 -45 1 -7 12 22 41 39 41 8 0 19 7 26 15 16
19 34 15 38 -9z m98 -11 c10 -19 11 -31 5 -33 -6 -2 -8 -14 -5 -28 5 -18 2
-24 -10 -24 -10 0 -16 8 -16 21 0 17 -3 19 -13 10 -19 -15 -29 -3 -16 20 6 13
6 25 -1 38 -14 27 -13 27 15 26 18 0 30 -9 41 -30z m88 0 c-31 -27 -34 -28
-58 -19 -28 11 -17 26 14 22 18 -3 35 1 41 9 6 7 16 13 22 13 5 0 -3 -11 -19
-25z m656 15 c0 -5 -2 -10 -4 -10 -3 0 -8 5 -11 10 -3 6 -1 10 4 10 6 0 11 -4
11 -10z m-110 -10 c0 -13 -11 -13 -30 0 -12 8 -11 10 8 10 12 0 22 -4 22 -10z
m87 -28 c2 -26 -1 -32 -16 -32 -22 0 -32 20 -24 50 9 33 37 21 40 -18z m93 28
c0 -5 -2 -10 -4 -10 -3 0 -8 5 -11 10 -3 6 -1 10 4 10 6 0 11 -4 11 -10z
m-880 -10 c0 -5 -4 -10 -10 -10 -5 0 -10 -9 -10 -21 0 -15 -5 -19 -15 -15 -8
3 -21 -4 -29 -16 -9 -12 -18 -19 -21 -16 -10 10 6 34 35 52 17 9 30 21 30 27
0 5 5 9 10 9 6 0 10 -4 10 -10z m230 0 c0 -5 -2 -10 -4 -10 -3 0 -8 5 -11 10
-3 6 -1 10 4 10 6 0 11 -4 11 -10z m-64 -35 c-6 -25 8 -36 18 -12 3 8 9 7 20
-7 18 -22 10 -42 -10 -25 -11 9 -14 9 -14 -1 0 -8 -8 -10 -21 -7 -13 4 -28 -2
-41 -15 -21 -21 -21 -21 -35 -2 -13 17 -10 22 29 56 51 44 62 47 54 13z m554
21 c0 -3 -4 -8 -10 -11 -5 -3 -10 -1 -10 4 0 6 5 11 10 11 6 0 10 -2 10 -4z
m-345 -53 c-2 -16 -4 -30 -5 -33 0 -3 -5 3 -11 13 -8 13 -7 22 1 33 17 20 19
18 15 -13z m247 12 c0 -5 -5 -11 -11 -13 -6 -2 -11 4 -11 13 0 9 5 15 11 13 6
-2 11 -8 11 -13z m283 5 c6 -10 -22 -46 -30 -38 -7 6 7 48 16 48 4 0 11 -5 14
-10z m-585 -20 c0 -5 -4 -10 -10 -10 -5 0 -10 5 -10 10 0 6 5 10 10 10 6 0 10
-4 10 -10z m257 -27 c13 -16 22 -36 19 -47 -3 -10 0 -26 5 -35 13 -21 -12 -95
-33 -99 -24 -5 -32 30 -12 45 16 12 16 13 -4 13 -17 0 -22 -6 -22 -25 0 -29
-5 -30 -40 -10 -18 10 -20 14 -8 15 22 0 32 18 19 34 -16 19 -3 26 32 19 29
-6 30 -5 23 23 -4 16 -13 35 -21 43 -10 11 -11 18 -2 32 15 24 15 24 44 -8z
m-547 -17 c0 -5 -7 -3 -15 4 -8 7 -12 17 -9 22 7 10 24 -9 24 -26z m590 30 c0
-3 -4 -8 -10 -11 -5 -3 -10 -1 -10 4 0 6 5 11 10 11 6 0 10 -2 10 -4z m-418
-21 c0 -5 -5 -11 -11 -13 -6 -2 -11 4 -11 13 0 9 5 15 11 13 6 -2 11 -8 11
-13z m38 -6 c-7 -11 -14 -19 -16 -16 -7 7 7 37 17 37 6 0 5 -9 -1 -21z m495
11 c3 -5 1 -10 -4 -10 -6 0 -11 5 -11 10 0 6 2 10 4 10 3 0 8 -4 11 -10z
m-268 -37 c-7 -6 -46 10 -41 18 3 5 14 3 24 -3 11 -7 18 -13 17 -15z m-197 9
c0 -13 -12 -22 -22 -16 -10 6 -1 24 13 24 5 0 9 -4 9 -8z m441 -26 c-7 -9 -7
-16 0 -23 8 -8 8 -13 0 -17 -6 -4 -11 0 -11 8 0 9 -5 16 -10 16 -7 0 -7 7 0
20 6 11 15 18 21 14 7 -4 7 -10 0 -18z m49 14 c0 -5 -4 -10 -10 -10 -5 0 -10
5 -10 10 0 6 5 10 10 10 6 0 10 -4 10 -10z m-615 -10 c-3 -5 -14 -10 -23 -10
-15 0 -15 2 -2 10 20 13 33 13 25 0z m301 -5 c13 -12 12 -17 -6 -35 -23 -23
-38 -21 -24 2 5 7 7 21 6 31 -4 21 5 22 24 2z m94 -6 c0 -5 -4 -9 -10 -9 -5 0
-10 7 -10 16 0 8 5 12 10 9 6 -3 10 -10 10 -16z m-640 -4 c0 -8 -7 -15 -15
-15 -8 0 -15 7 -15 15 0 8 7 15 15 15 8 0 15 -7 15 -15z m310 5 c0 -5 -5 -10
-11 -10 -5 0 -7 5 -4 10 3 6 8 10 11 10 2 0 4 -4 4 -10z m-100 -30 c0 -5 -7
-10 -16 -10 -8 0 -12 5 -9 10 3 6 10 10 16 10 5 0 9 -4 9 -10z m40 0 c0 -5 -4
-10 -10 -10 -5 0 -10 5 -10 10 0 6 5 10 10 10 6 0 10 -4 10 -10z m530 -5 c0
-8 -4 -15 -10 -15 -5 0 -10 7 -10 15 0 8 5 15 10 15 6 0 10 -7 10 -15z m126 1
c16 -17 19 -36 4 -36 -5 0 -10 7 -10 15 0 8 -4 15 -10 15 -5 0 -10 5 -10 10 0
14 9 12 26 -4z m-336 -15 c0 -12 -20 -25 -27 -18 -7 7 6 27 18 27 5 0 9 -4 9
-9z m-407 -31 c-6 -23 -19 -26 -26 -6 -4 9 1 17 11 19 9 3 18 5 19 6 0 0 -1
-8 -4 -19z m702 10 c3 -5 1 -10 -4 -10 -6 0 -11 5 -11 10 0 6 2 10 4 10 3 0 8
-4 11 -10z m-575 -4 c0 -11 -19 -15 -25 -6 -3 5 1 10 9 10 9 0 16 -2 16 -4z
m510 -28 c0 -5 -4 -8 -10 -8 -5 0 -10 10 -10 23 0 18 2 19 10 7 5 -8 10 -18
10 -22z m-720 2 c0 -5 12 -10 26 -10 16 0 24 -5 21 -12 -5 -15 -50 -12 -55 2
-2 6 -8 8 -13 4 -10 -6 -12 9 -2 19 10 10 23 8 23 -3z m840 -15 c0 -15 -18
-30 -27 -22 -2 3 -2 15 2 26 7 23 25 19 25 -4z m-411 -11 c-6 -8 -15 -14 -20
-14 -14 0 -11 28 4 33 20 7 29 -4 16 -19z m236 6 c3 -5 1 -10 -4 -10 -6 0 -11
5 -11 10 0 6 2 10 4 10 3 0 8 -4 11 -10z m123 -19 c35 -32 41 -51 17 -51 -8 0
-15 9 -15 20 0 21 -15 27 -25 10 -3 -5 -12 -7 -20 -3 -11 3 -13 1 -9 -10 3 -8
2 -17 -3 -19 -13 -7 -56 19 -44 26 5 4 8 13 4 21 -3 10 1 15 15 15 12 0 24 5
27 10 10 15 18 12 53 -19z m-249 -11 c4 0 12 5 18 11 17 17 30 4 31 -30 0 -21
-5 -30 -19 -34 -14 -4 -19 0 -19 14 0 12 -5 16 -15 13 -8 -4 -21 -1 -29 5 -11
9 -18 8 -30 -4 -9 -9 -16 -22 -16 -30 0 -7 -2 -20 -5 -27 -4 -9 7 -20 27 -30
29 -15 30 -17 11 -17 -34 -1 -66 35 -57 62 5 12 8 25 9 28 0 3 8 13 18 23 9
10 14 22 11 28 -4 6 1 8 14 4 12 -4 24 -2 28 6 7 10 9 9 12 -4 2 -10 7 -18 11
-18z m381 14 c0 -8 -5 -12 -10 -9 -6 4 -8 11 -5 16 9 14 15 11 15 -7z m-574
-58 c1 -14 -4 -27 -11 -29 -8 -4 -12 5 -11 24 1 35 20 39 22 5z m426 -8 c-7
-7 -12 -8 -12 -2 0 6 3 14 7 17 3 4 9 5 12 2 2 -3 -1 -11 -7 -17z m-250 -34
c-7 -14 -18 -24 -25 -21 -18 6 -17 46 2 57 24 14 36 -5 23 -36z m138 36 c0 -5
-5 -10 -11 -10 -5 0 -7 5 -4 10 3 6 8 10 11 10 2 0 4 -4 4 -10z m-240 -10 c0
-5 -4 -10 -10 -10 -5 0 -10 5 -10 10 0 6 5 10 10 10 6 0 10 -4 10 -10z m510
-11 c0 -6 -8 -18 -17 -27 -16 -16 -16 -16 -10 1 4 10 7 23 7 28 0 5 5 9 10 9
6 0 10 -5 10 -11z m-355 -9 c-3 -5 -11 -10 -16 -10 -6 0 -7 5 -4 10 3 6 11 10
16 10 6 0 7 -4 4 -10z m-265 -11 c0 -7 9 -9 22 -6 11 3 34 -1 50 -9 28 -15 34
-25 21 -38 -4 -4 -8 -15 -8 -24 0 -21 -35 -29 -46 -11 -6 11 -11 11 -21 1 -24
-24 -39 -14 -32 23 5 27 3 35 -8 35 -22 0 -29 -12 -17 -27 9 -10 7 -13 -10
-13 -24 0 -28 25 -8 51 19 25 57 37 57 18z m254 -40 c-3 -5 -10 -7 -15 -3 -5
3 -7 10 -3 15 3 5 10 7 15 3 5 -3 7 -10 3 -15z m73 -11 c-3 -8 -6 -5 -6 6 -1
11 2 17 5 13 3 -3 4 -12 1 -19z m207 13 c3 -5 15 -7 26 -4 29 8 24 -10 -8 -29
-32 -19 -52 -9 -52 24 0 19 25 25 34 9z m-699 -20 c-3 -6 2 -14 10 -19 10 -5
13 -15 9 -25 -7 -20 -24 -23 -24 -3 0 7 -7 19 -15 26 -21 17 -19 30 6 30 11 0
18 -4 14 -9z m515 -25 c0 -3 -4 -8 -10 -11 -5 -3 -10 -1 -10 4 0 6 5 11 10 11
6 0 10 -2 10 -4z m110 -6 c0 -5 -7 -10 -15 -10 -8 0 -15 5 -15 10 0 6 7 10 15
10 8 0 15 -4 15 -10z m-62 -11 c-26 -14 -23 -32 2 -19 18 10 20 9 15 -12 -12
-48 -11 -84 3 -101 9 -9 12 -20 8 -25 -4 -4 -13 1 -20 11 -15 20 -32 22 -40 5
-3 -7 -4 -1 -1 13 3 17 -2 33 -17 49 -21 22 -21 23 -2 38 14 10 15 16 6 19
-21 8 7 33 37 33 22 -1 24 -2 9 -11z m-367 -48 c-13 -23 -32 -26 -62 -11 -28
16 -23 25 19 36 44 12 58 4 43 -25z m-123 17 c-6 -18 -28 -21 -28 -4 0 9 7 16
16 16 9 0 14 -5 12 -12z m-81 -4 c-3 -3 -12 -4 -19 -1 -8 3 -5 6 6 6 11 1 17
-2 13 -5z m130 -61 c-9 -9 -20 -13 -24 -9 -4 4 1 14 11 22 25 18 35 8 13 -13z
m263 8 c0 -5 -7 -12 -16 -15 -14 -5 -15 -4 -4 9 14 17 20 19 20 6z m435 -29
c-8 -9 -25 20 -18 31 3 5 10 2 15 -7 6 -10 7 -20 3 -24z m-620 18 c3 -5 1 -10
-4 -10 -6 0 -11 5 -11 10 0 6 2 10 4 10 3 0 8 -4 11 -10z m65 -20 c-20 -13
-33 -13 -25 0 3 6 14 10 23 10 15 0 15 -2 2 -10z m244 -12 c3 -13 1 -27 -4
-32 -6 -6 -10 -6 -11 0 0 5 -2 19 -5 32 -5 29 12 29 20 0z m-94 -18 c0 -5 -7
-10 -15 -10 -8 0 -15 -5 -15 -12 0 -6 -3 -8 -6 -5 -8 8 14 37 27 37 5 0 9 -4
9 -10z m138 -58 c2 -19 -1 -32 -8 -32 -7 0 -9 8 -5 20 7 21 -10 29 -18 8 -7
-22 -17 -3 -10 20 9 35 37 23 41 -16z m-353 18 c3 -5 2 -10 -4 -10 -5 0 -13 5
-16 10 -3 6 -2 10 4 10 5 0 13 -4 16 -10z m-5 -30 c0 -5 -7 -10 -15 -10 -8 0
-15 5 -15 10 0 6 7 10 15 10 8 0 15 -4 15 -10z m440 0 c0 -5 -2 -10 -4 -10 -3
0 -8 5 -11 10 -3 6 -1 10 4 10 6 0 11 -4 11 -10z m-400 -4 c0 -3 -4 -8 -10
-11 -5 -3 -10 -1 -10 4 0 6 5 11 10 11 6 0 10 -2 10 -4z m177 -20 c-16 -18
-31 -8 -16 10 6 7 15 11 20 8 5 -3 3 -11 -4 -18z m83 9 c0 -8 -7 -15 -15 -15
-16 0 -20 12 -8 23 11 12 23 8 23 -8z m-286 -46 c-9 -10 -21 -16 -26 -13 -11
7 24 43 35 37 5 -3 1 -13 -9 -24z m526 21 c12 -8 11 -10 -7 -10 -13 0 -23 5
-23 10 0 13 11 13 30 0z m-570 -10 c0 -5 -4 -10 -9 -10 -6 0 -13 5 -16 10 -3
6 1 10 9 10 9 0 16 -4 16 -10z m-80 -8 c0 -5 -7 -17 -15 -28 -14 -19 -14 -19
-15 2 0 11 3 24 7 27 9 10 23 9 23 -1z m239 -11 c9 -6 10 -10 2 -16 -16 -9
-44 2 -36 15 8 12 16 12 34 1z m111 -17 c0 -8 -5 -12 -10 -9 -6 4 -8 11 -5 16
9 14 15 11 15 -7z m-449 -31 c-8 -15 -10 -15 -11 -2 0 17 10 32 18 25 2 -3 -1
-13 -7 -23z m414 -3 c3 -5 1 -10 -4 -10 -6 0 -11 5 -11 10 0 6 2 10 4 10 3 0
8 -4 11 -10z m-435 -10 c0 -5 -4 -10 -10 -10 -5 0 -10 5 -10 10 0 6 5 10 10
10 6 0 10 -4 10 -10z m280 -16 c0 -17 -22 -14 -28 4 -2 7 3 12 12 12 9 0 16
-7 16 -16z m-240 -54 c0 -11 -5 -20 -11 -20 -5 0 -7 -6 -3 -12 6 -9 3 -9 -9 0
-13 11 -14 17 -4 33 15 25 27 24 27 -1z m346 -7 c-10 -10 -19 5 -10 18 6 11 8
11 12 0 2 -7 1 -15 -2 -18z m52 5 c19 -19 14 -30 -10 -22 -29 8 -31 10 -23 23
8 14 18 14 33 -1z m-288 -22 c0 -2 -7 -6 -15 -10 -8 -3 -15 -1 -15 4 0 6 7 10
15 10 8 0 15 -2 15 -4z m160 -37 c0 -14 -16 -11 -29 5 -10 12 -8 13 8 9 12 -3
21 -9 21 -14z m80 -10 c0 -6 -6 -9 -14 -6 -24 10 -26 -5 -3 -23 27 -22 19 -34
-16 -21 -20 8 -28 6 -42 -9 -12 -14 -25 -18 -41 -14 -13 4 -24 2 -24 -3 0 -5
-7 -18 -16 -29 -15 -18 -15 -18 -9 9 3 15 1 27 -4 27 -5 0 -7 8 -4 19 3 14 12
17 34 15 27 -3 30 -2 23 19 -6 18 -4 20 7 10 11 -9 20 -8 39 2 30 17 70 19 70
4z m310 1 c0 -5 -2 -10 -4 -10 -3 0 -8 5 -11 10 -3 6 -1 10 4 10 6 0 11 -4 11
-10z m-30 -100 c0 -5 -2 -10 -4 -10 -3 0 -8 5 -11 10 -3 6 -1 10 4 10 6 0 11
-4 11 -10z m-385 -38 c-3 -3 -11 0 -18 7 -9 10 -8 11 6 5 10 -3 15 -9 12 -12z
m-35 -21 c0 -5 -7 -14 -15 -21 -12 -10 -15 -10 -15 2 0 8 3 18 7 21 9 10 23 9
23 -2z m15 -31 c-3 -5 -1 -10 4 -10 6 0 11 -7 11 -15 0 -8 -4 -15 -10 -15 -5
0 -10 5 -10 11 0 5 -4 7 -10 4 -14 -9 -13 8 2 23 15 15 21 16 13 2z m175 -216
c0 -8 -4 -12 -10 -9 -5 3 -10 13 -10 21 0 8 5 12 10 9 6 -3 10 -13 10 -21z
m10 -65 c0 -6 -4 -7 -10 -4 -5 3 -10 11 -10 16 0 6 5 7 10 4 6 -3 10 -11 10
-16z m-60 -30 c0 -5 -4 -9 -10 -9 -5 0 -10 7 -10 16 0 8 5 12 10 9 6 -3 10
-10 10 -16z"/>
<path d="M1813 3769 c-2 -23 3 -25 10 -4 4 8 3 16 -1 19 -4 3 -9 -4 -9 -15z"/>
<path d="M550 3771 c-22 -6 -23 -8 -7 -14 24 -9 24 -9 31 8 3 8 4 15 3 14 -1
-1 -13 -4 -27 -8z"/>
<path d="M764 3753 c4 -12 2 -24 -4 -28 -12 -8 -13 -25 -1 -25 15 0 23 52 10
64 -8 8 -10 6 -5 -11z"/>
<path d="M1666 3748 c-3 -13 -6 -27 -6 -33 1 -15 30 27 30 42 0 22 -17 15 -24
-9z"/>
<path d="M1720 3760 c0 -5 5 -10 10 -10 17 0 11 -20 -7 -28 -10 -4 -19 -13
-21 -20 -2 -10 2 -10 17 -2 27 14 33 27 26 50 -7 21 -25 28 -25 10z"/>
<path d="M458 3753 c7 -3 16 -2 19 1 4 3 -2 6 -13 5 -11 0 -14 -3 -6 -6z"/>
<path d="M700 3754 c0 -6 7 -19 15 -30 8 -10 14 -14 14 -9 0 6 -6 19 -14 29
-8 11 -15 15 -15 10z"/>
<path d="M495 3733 c-15 -12 -16 -14 -3 -10 17 6 33 -17 29 -42 -2 -13 0 -13
13 -2 20 17 20 24 -1 50 -17 19 -19 19 -38 4z"/>
<path d="M1155 3740 c-3 -5 -1 -10 4 -10 6 0 11 5 11 10 0 6 -2 10 -4 10 -3 0
-8 -4 -11 -10z"/>
<path d="M1566 3733 c-3 -8 -1 -11 4 -8 6 3 10 1 10 -4 0 -6 12 -11 26 -11 21
0 24 3 15 14 -17 21 -49 26 -55 9z"/>
<path d="M1880 3730 c0 -5 5 -10 10 -10 6 0 10 5 10 10 0 6 -4 10 -10 10 -5 0
-10 -4 -10 -10z"/>
<path d="M847 3723 c-11 -10 -8 -20 7 -26 10 -4 12 0 9 14 -6 21 -7 22 -16 12z"/>
<path d="M1522 3708 c-8 -8 -7 -18 5 -39 16 -27 16 -29 -2 -44 -11 -8 -15 -15
-9 -15 5 0 14 4 20 10 14 14 53 0 60 -22 3 -12 9 -16 13 -11 3 6 16 15 29 22
26 14 29 31 5 31 -12 0 -14 3 -6 11 11 11 46 0 44 -14 -2 -17 0 -19 14 -7 10
8 28 10 52 5 35 -6 37 -5 22 10 -9 9 -33 18 -55 19 -21 2 -42 4 -46 5 -5 1 -8
8 -8 16 0 8 -4 15 -10 15 -5 0 -10 -9 -10 -20 0 -11 -4 -20 -10 -20 -5 0 -10
7 -10 15 0 18 -12 19 -28 3 -9 -9 -12 -8 -12 5 0 9 -6 17 -14 17 -9 0 -12 -7
-9 -20 3 -11 12 -20 21 -20 13 0 14 -2 3 -12 -10 -11 -17 -7 -37 16 -24 27
-24 29 -7 42 10 7 13 14 8 14 -6 0 -16 -5 -23 -12z"/>
<path d="M1775 3710 c-3 -6 1 -7 9 -4 18 7 21 14 7 14 -6 0 -13 -4 -16 -10z"/>
<path d="M2099 3704 c-1 -5 -1 -13 0 -18 3 -15 -20 -35 -35 -29 -12 4 -14 0
-8 -21 5 -20 2 -26 -10 -26 -9 0 -16 -4 -16 -10 0 -5 -5 -9 -11 -7 -6 1 -14
-4 -16 -10 -3 -7 2 -13 11 -13 9 0 16 -5 16 -11 0 -6 -9 -9 -20 -6 -21 5 -27
-7 -9 -18 7 -5 3 -14 -10 -26 -11 -11 -18 -25 -15 -33 6 -16 -22 -30 -31 -16
-4 6 -1 10 5 10 7 0 6 5 -2 14 -16 17 -28 11 -28 -14 0 -10 -6 -21 -12 -23
-10 -4 -10 -6 0 -6 18 -1 15 -31 -4 -31 -8 0 -12 -5 -8 -11 5 -8 1 -8 -13 0
-27 14 -83 23 -83 14 0 -12 20 -39 20 -28 0 6 11 10 25 10 36 0 31 -8 -20 -33
-25 -12 -45 -25 -45 -29 0 -12 -58 -36 -69 -29 -5 3 -11 -3 -14 -14 -3 -11
-12 -20 -21 -20 -9 0 -16 -6 -16 -13 0 -22 -95 -106 -116 -103 -11 2 -13 1 -6
-1 17 -6 16 -10 -23 -51 -106 -116 -170 -242 -220 -437 -19 -77 -40 -147 -45
-156 -5 -9 -6 -19 -3 -23 3 -3 5 -46 4 -95 -1 -54 2 -92 8 -96 7 -4 11 3 11
17 2 183 25 357 57 418 12 23 13 23 13 4 0 -11 -3 -23 -6 -27 -4 -3 -7 -24 -8
-47 -1 -22 1 -35 4 -30 4 7 14 1 24 -14 10 -16 12 -26 5 -26 -6 0 -9 -7 -5
-15 3 -8 2 -15 -2 -15 -4 0 -7 -37 -7 -82 0 -78 2 -83 21 -80 18 2 20 -2 16
-28 -2 -17 -9 -33 -15 -37 -6 -4 -8 0 -5 9 4 8 2 21 -4 29 -7 10 -8 1 -4 -28
5 -34 2 -47 -12 -61 -12 -12 -16 -25 -11 -38 3 -10 4 -23 2 -28 -9 -14 -6
-192 3 -207 11 -18 13 -119 3 -119 -5 0 -7 -27 -5 -60 2 -33 0 -63 -5 -66 -5
-3 -9 -14 -9 -25 0 -11 3 -18 8 -15 4 2 8 -36 9 -85 1 -50 -2 -89 -8 -89 -12
0 -12 -33 0 -46 5 -5 11 -42 13 -82 1 -40 6 -78 10 -85 4 -6 0 -20 -9 -29 -9
-10 -12 -18 -7 -18 5 0 10 -35 11 -77 1 -52 -1 -71 -7 -58 -17 39 -11 -16 10
-93 11 -39 20 -74 20 -76 0 -2 -24 -9 -52 -16 -90 -20 -225 -69 -323 -115
-109 -52 -134 -79 -210 -224 -27 -52 -57 -98 -65 -102 -8 -4 -55 -24 -105 -44
-49 -20 -143 -63 -208 -96 -65 -32 -122 -59 -127 -59 -5 0 -21 -5 -37 -12 -15
-6 -32 -11 -38 -10 -5 1 -53 -14 -105 -32 l-95 -33 -3 -122 -3 -121 666 0
c366 0 665 2 665 5 0 2 -18 30 -40 61 -22 32 -40 63 -40 69 0 21 28 38 47 30
10 -5 24 -7 31 -6 8 1 25 -5 38 -14 14 -9 29 -13 34 -10 5 3 11 2 14 -3 10
-17 74 -13 88 5 21 29 94 83 127 94 17 6 44 23 59 38 16 14 52 37 80 50 29 14
52 28 52 32 0 5 16 6 36 4 22 -3 33 -1 29 5 -3 6 1 7 9 4 9 -3 16 -2 16 2 0 5
19 10 43 12 23 1 63 7 88 13 39 9 46 14 42 30 -4 12 0 19 9 19 8 0 35 13 60
29 25 16 49 27 52 24 3 -3 12 2 20 10 9 8 25 13 36 10 13 -4 20 0 20 10 0 8
11 18 25 21 14 4 25 14 26 24 0 10 3 12 6 4 3 -9 12 -7 34 9 16 11 29 17 29
13 0 -4 9 1 20 11 11 10 17 22 13 28 -4 6 0 8 10 4 10 -3 17 -2 17 3 0 6 -7
10 -17 10 -13 0 -12 4 7 20 12 11 27 17 31 14 13 -8 10 9 -5 29 -15 19 -36 23
-36 6 0 -7 -14 -9 -40 -5 -23 3 -39 2 -36 -2 2 -4 -4 -8 -15 -8 -10 0 -19 3
-19 6 0 10 -45 7 -52 -4 -4 -6 -15 -6 -31 1 -18 9 -27 9 -36 0 -8 -8 -11 -7
-11 6 0 11 -7 16 -23 15 -13 -1 -38 8 -56 21 -21 15 -42 22 -60 19 -18 -3 -28
0 -28 9 0 6 5 9 10 6 6 -4 7 -1 3 6 -5 7 -14 10 -22 7 -8 -3 -11 0 -8 8 3 8
-9 22 -29 34 -18 12 -40 34 -47 49 -8 15 -16 32 -19 37 -2 5 0 6 6 3 5 -4 16
5 23 18 7 14 19 25 26 25 7 0 18 8 23 19 6 10 20 18 33 17 13 -1 28 4 33 11 6
7 29 14 52 16 24 1 43 5 43 8 0 13 64 7 87 -8 13 -9 26 -13 30 -10 3 4 -2 9
-11 13 -26 10 -20 37 7 28 12 -3 19 -3 15 1 -4 5 -3 14 3 22 9 11 1 13 -47 15
-125 4 -143 6 -178 12 -25 5 -40 15 -50 35 -8 15 -22 33 -30 40 -10 8 -16 29
-16 52 0 31 -3 37 -16 32 -8 -3 -13 -12 -10 -20 3 -8 2 -12 -3 -9 -16 10 -9
56 10 66 10 6 50 10 90 10 63 0 70 2 59 15 -7 9 -19 14 -26 11 -8 -3 -15 6
-19 25 -4 16 -11 29 -16 29 -5 0 -9 11 -9 24 0 29 -19 46 -56 50 -33 4 -41 20
-22 43 11 15 11 16 -7 8 -11 -4 -37 -10 -57 -13 -21 -2 -38 -9 -38 -14 0 -6
-7 -7 -16 -4 -12 4 -15 2 -10 -9 6 -18 -5 -20 -21 -4 -8 8 -16 4 -28 -15 -22
-33 -45 -34 -45 -2 0 14 -5 28 -10 31 -6 4 -8 15 -5 26 4 13 2 19 -9 19 -9 0
-16 5 -16 11 0 5 -4 8 -9 5 -5 -4 -12 12 -16 34 -4 22 -14 45 -23 51 -16 10
-15 10 1 5 9 -3 17 -1 17 4 0 6 -4 10 -10 10 -5 0 -10 6 -10 13 0 7 -18 23
-40 37 -29 17 -40 30 -36 43 2 10 -1 17 -10 17 -7 0 -18 10 -25 21 -9 17 -8
20 3 13 7 -4 5 2 -5 13 -11 13 -15 27 -11 38 6 14 4 17 -7 13 -14 -5 -42 15
-33 24 2 3 -7 30 -21 61 -13 32 -20 57 -15 57 6 0 10 5 10 11 0 5 -4 7 -10 4
-16 -10 -12 5 7 23 13 14 35 16 127 15 75 -1 127 3 161 13 55 16 128 53 107
54 -7 0 -22 -5 -33 -11 -12 -6 -28 -7 -37 -3 -20 8 -28 10 -62 13 -20 3 -17 5
15 12 21 5 49 19 61 30 16 15 29 19 44 14 20 -6 21 -7 3 -20 -15 -12 -9 -13
47 -8 l64 6 -17 -26 c-21 -32 -22 -44 -2 -27 9 8 15 9 15 2 0 -6 -4 -13 -9
-16 -5 -3 -7 -15 -4 -26 3 -11 0 -20 -6 -20 -6 0 -11 5 -11 12 0 6 -2 9 -5 6
-9 -9 7 -38 17 -32 6 4 4 -4 -2 -17 -13 -23 -13 -23 13 -6 34 22 37 22 37 -5
0 -13 -14 -38 -31 -57 -16 -19 -37 -49 -45 -67 -9 -18 -26 -45 -39 -59 -13
-14 -22 -25 -19 -25 3 0 -4 -15 -16 -34 -19 -31 -24 -63 -19 -108 2 -13 9 -16
29 -11 32 6 74 -13 64 -29 -5 -8 -1 -9 10 -5 13 5 17 3 13 -6 -4 -11 2 -13 26
-9 18 2 40 5 50 5 9 1 17 6 17 11 0 5 3 7 6 3 3 -3 16 6 28 19 14 17 35 27 66
31 56 8 110 46 103 73 -3 11 -11 16 -19 13 -14 -5 -57 34 -88 81 -20 31 -51
34 -66 6 -16 -31 -100 -26 -100 6 0 8 -8 14 -17 14 -14 1 -12 6 10 25 16 14
33 22 39 19 6 -4 22 6 35 22 12 16 23 23 23 17 0 -7 4 -13 8 -13 4 0 8 16 9
35 1 33 -18 62 -34 52 -4 -2 -17 4 -27 14 -16 16 -17 19 -4 19 9 0 19 7 22 16
3 9 2 12 -5 8 -6 -3 5 16 23 42 42 60 51 81 35 87 -9 3 -9 7 0 19 8 9 9 18 3
24 -7 7 -4 17 7 30 10 10 17 30 15 43 -2 13 2 28 10 32 10 7 10 9 -2 9 -9 0
-22 16 -29 35 -8 23 -19 35 -30 35 -10 0 -21 8 -23 18 -3 10 -23 24 -47 32
-22 7 -41 17 -41 22 0 4 -7 8 -15 8 -8 0 -15 4 -15 10 0 5 -11 12 -24 16 -14
3 -27 12 -30 21 -3 8 -10 11 -16 8 -5 -3 -22 0 -37 9 -16 8 -55 20 -88 26 -33
7 -65 20 -72 29 -7 9 -13 12 -13 7 0 -5 -9 -1 -20 9 -21 19 -18 58 7 83 7 7
13 20 13 28 0 8 3 13 8 13 25 -4 42 3 42 19 0 12 3 13 8 5 10 -15 52 -5 52 13
0 7 12 14 26 16 15 2 33 12 40 23 12 18 10 27 -11 72 -14 29 -30 55 -35 58 -6
4 -8 9 -6 13 2 4 0 29 -4 56 -5 36 -3 60 7 84 13 31 13 34 0 29 -9 -3 -18 1
-21 9 -3 9 -1 12 4 9 6 -3 10 -1 10 4 0 6 -12 12 -27 12 -19 1 -22 3 -10 6 11
3 16 11 13 19 -6 15 27 38 39 26 3 -4 5 0 3 8 -2 9 6 16 20 18 13 2 26 10 29
18 7 19 33 18 33 -2 0 -14 2 -14 16 1 9 8 13 22 10 30 -8 22 11 28 24 8 10
-17 10 -16 8 2 -2 12 3 21 12 21 8 1 20 3 25 4 6 1 14 2 19 1 5 -1 26 12 47
29 22 17 39 27 39 21 0 -5 -6 -12 -12 -14 -8 -3 -6 -6 5 -6 10 -1 17 6 18 17
0 16 1 16 7 -1 7 -16 9 -16 30 -2 34 25 26 35 -27 35 -35 0 -51 4 -55 16 -4
12 -1 14 14 9 16 -5 19 -3 13 12 -4 10 -11 21 -16 24 -12 9 21 53 48 65 12 6
20 19 20 34 0 29 28 74 39 62 4 -4 4 7 0 23 -7 33 -13 44 -15 29z m-39 -129
c-7 -9 -15 -13 -17 -11 -7 7 7 26 19 26 6 0 6 -6 -2 -15z m-93 -152 c-9 -9
-19 -14 -23 -11 -10 10 6 28 24 28 15 0 15 -1 -1 -17z m-7 -43 c0 -5 -4 -10
-10 -10 -5 0 -10 5 -10 10 0 6 5 10 10 10 6 0 10 -4 10 -10z m-280 -156 c0 -8
-5 -12 -10 -9 -6 4 -8 11 -5 16 9 14 15 11 15 -7z m60 -274 c0 -5 -2 -10 -4
-10 -3 0 -8 5 -11 10 -3 6 -1 10 4 10 6 0 11 -4 11 -10z m-373 -222 c-3 -7 -5
-2 -5 12 0 14 2 19 5 13 2 -7 2 -19 0 -25z m72 -79 c-9 -5 -15 -4 -18 2 -2 6
3 15 10 20 9 5 15 4 18 -2 2 -6 -3 -15 -10 -20z m-64 -9 c3 -5 1 -10 -4 -10
-6 0 -11 5 -11 10 0 6 2 10 4 10 3 0 8 -4 11 -10z m408 -219 c32 -13 57 -27
57 -32 0 -5 5 -9 10 -9 20 0 52 -43 86 -116 37 -81 44 -115 20 -94 -8 6 -13
17 -11 23 7 18 -15 41 -70 72 l-50 28 50 -45 c53 -48 57 -69 8 -45 -15 8 -68
17 -118 20 -107 6 -125 11 -118 38 4 13 14 19 34 19 37 0 38 19 2 26 -49 10
-65 28 -53 58 5 15 10 38 10 51 0 39 55 42 143 6z m271 -27 c5 -14 4 -15 -9
-4 -17 14 -19 20 -6 20 5 0 12 -7 15 -16z m-280 -1110 c9 -24 -3 -61 -15 -43
-4 8 -3 19 4 28 10 12 8 13 -11 9 -19 -5 -21 -4 -11 8 15 18 25 18 33 -2z
m-377 -386 c-3 -7 -5 -2 -5 12 0 14 2 19 5 13 2 -7 2 -19 0 -25z m898 -217 c3
-5 1 -12 -5 -16 -5 -3 -10 1 -10 9 0 18 6 21 15 7z"/>
<path d="M2130 3702 c1 -21 19 -34 34 -25 15 8 14 11 -9 21 -14 6 -25 8 -25 4z"/>
<path d="M770 3671 c0 -6 5 -13 10 -16 6 -3 10 -11 10 -16 0 -6 -5 -7 -11 -3
-7 4 -10 1 -7 -7 3 -8 12 -15 21 -17 19 -4 22 19 7 49 -11 20 -30 26 -30 10z"/>
<path d="M1802 3655 c0 -16 2 -22 5 -12 2 9 2 23 0 30 -3 6 -5 -1 -5 -18z"/>
<path d="M881 3654 c0 -11 3 -14 6 -6 3 7 2 16 -1 19 -3 4 -6 -2 -5 -13z"/>
<path d="M1487 3646 c-3 -8 -3 -17 0 -20 9 -9 34 15 27 25 -8 13 -21 11 -27
-5z"/>
<path d="M1298 3633 c7 -3 16 -2 19 1 4 3 -2 6 -13 5 -11 0 -14 -3 -6 -6z"/>
<path d="M2000 3629 c0 -5 5 -7 10 -4 6 3 10 8 10 11 0 2 -4 4 -10 4 -5 0 -10
-5 -10 -11z"/>
<path d="M1729 3623 c-1 -4 -1 -11 0 -15 0 -4 -3 -18 -8 -31 -8 -22 -7 -23 22
-20 18 2 42 6 55 9 21 4 21 6 7 20 -14 15 -18 14 -41 0 -24 -17 -24 -16 -18 7
3 14 1 28 -5 31 -6 4 -12 4 -12 -1z"/>
<path d="M890 3603 c0 -15 2 -16 10 -3 5 8 10 10 10 4 0 -7 7 -14 15 -18 19
-7 19 -1 -1 18 -20 21 -34 20 -34 -1z"/>
<path d="M1445 3597 c17 -27 45 -43 45 -27 0 6 -7 10 -16 10 -8 0 -13 4 -9 9
3 6 -4 15 -15 21 -21 11 -21 11 -5 -13z"/>
<path d="M457 3593 c-4 -3 -7 -13 -7 -21 0 -11 3 -12 14 -3 11 9 20 10 35 1
26 -13 28 -2 4 16 -20 15 -36 17 -46 7z"/>
<path d="M1330 3584 c0 -8 5 -12 10 -9 6 4 8 11 5 16 -9 14 -15 11 -15 -7z"/>
<path d="M1548 3588 c18 -18 14 -32 -5 -17 -15 13 -16 12 -10 -10 7 -27 -9
-67 -30 -75 -11 -4 -11 -1 -3 15 9 15 8 24 -1 35 -10 12 -13 12 -24 -3 -10
-14 -11 -21 -2 -32 10 -12 9 -14 -5 -8 -13 5 -16 0 -16 -26 1 -18 3 -27 5 -21
5 16 53 5 53 -12 0 -8 5 -14 12 -14 6 0 8 3 5 6 -3 4 -2 15 4 25 7 15 6 17 -6
13 -8 -4 -15 -1 -15 5 0 14 38 34 50 26 13 -8 13 -35 0 -35 -5 0 -10 -7 -10
-15 0 -8 5 -15 11 -15 5 0 7 5 4 10 -3 6 1 10 9 10 9 0 16 5 16 10 0 6 7 10
15 10 29 0 9 27 -25 34 -3 1 -11 5 -17 9 -19 12 -16 30 3 23 12 -4 15 -2 10 9
-3 8 0 15 6 15 6 0 3 9 -7 20 -10 11 -23 20 -29 20 -6 0 -5 -5 2 -12z m-48
-68 c0 -5 -4 -10 -10 -10 -5 0 -10 5 -10 10 0 6 5 10 10 10 6 0 10 -4 10 -10z"/>
<path d="M1636 3574 c-9 -23 -7 -31 3 -15 8 12 13 11 30 -10 23 -27 27 -49 9
-50 -7 0 -21 -2 -30 -4 -11 -2 -15 2 -11 11 3 8 -1 14 -11 14 -14 0 -15 -4 -5
-22 10 -18 8 -24 -10 -39 -17 -14 -20 -24 -15 -45 6 -24 5 -27 -15 -21 -17 4
-21 2 -17 -10 3 -8 6 -19 6 -24 0 -5 5 -9 10 -9 6 0 10 7 10 15 0 8 5 15 11
15 6 0 8 -7 5 -16 -3 -9 -6 -20 -6 -25 0 -6 -4 -7 -10 -4 -5 3 -10 2 -10 -3 0
-16 13 -22 27 -11 24 20 14 -8 -14 -40 -15 -17 -36 -31 -46 -31 -10 0 -16 -4
-13 -9 6 -10 -22 -25 -40 -22 -12 1 -39 -35 -54 -73 -7 -18 -5 -26 5 -30 8 -3
17 0 21 6 4 7 3 8 -4 4 -8 -5 -12 0 -12 13 0 12 7 21 15 21 8 0 15 4 15 10 0
5 8 7 18 4 14 -5 15 -4 2 5 -13 10 -13 12 0 21 21 14 31 12 28 -4 -2 -8 2 -15
7 -16 6 0 11 8 13 19 2 11 14 22 28 25 16 4 24 13 22 24 -2 11 3 17 14 16 10
-1 14 4 11 12 -7 19 7 40 17 24 5 -7 12 -3 24 14 17 26 10 36 -11 15 -18 -18
-35 0 -28 30 4 14 9 46 10 70 4 43 16 61 44 61 7 0 11 -6 8 -15 -4 -8 -1 -17
5 -21 6 -4 8 -3 5 3 -7 12 28 43 49 43 8 0 12 5 9 11 -4 6 -13 8 -21 5 -19 -7
-64 32 -64 56 0 22 -26 24 -34 2z m-19 -156 c-3 -8 -6 -5 -6 6 -1 11 2 17 5
13 3 -3 4 -12 1 -19z"/>
<path d="M1381 3554 c-27 -34 -26 -40 4 -48 14 -4 25 -11 25 -16 0 -6 4 -10
10 -10 5 0 7 7 3 16 -3 9 0 20 8 24 7 5 10 13 5 17 -4 4 -13 0 -20 -10 -7 -9
-16 -17 -20 -17 -11 0 -6 23 10 41 9 10 11 19 5 23 -5 3 -19 -6 -30 -20z"/>
<path d="M140 3546 c0 -22 18 -56 29 -56 21 0 18 30 -5 51 -21 19 -24 20 -24
5z"/>
<path d="M465 3550 c-23 -10 -21 -11 23 -15 33 -3 43 8 16 19 -9 3 -16 6 -17
5 -1 0 -11 -4 -22 -9z"/>
<path d="M880 3531 c0 -11 4 -22 9 -25 4 -3 6 6 3 19 -5 30 -12 33 -12 6z"/>
<path d="M1313 3539 c-6 -6 -9 -17 -6 -25 3 -8 -5 -16 -21 -20 -15 -4 -26 -13
-26 -23 0 -10 -3 -21 -7 -24 -3 -4 -7 -18 -9 -31 -2 -24 -2 -24 17 -5 10 10
24 19 29 19 6 0 9 5 8 11 -2 6 3 14 11 17 10 3 12 0 8 -12 -4 -10 -7 -27 -7
-37 0 -17 -4 -19 -22 -13 -20 6 -21 5 -9 -10 13 -15 15 -15 32 0 11 10 19 23
19 31 0 7 7 24 15 37 14 20 13 24 -5 44 -11 11 -17 28 -14 36 7 19 2 20 -13 5z
m17 -59 c0 -5 -4 -10 -10 -10 -5 0 -10 5 -10 10 0 6 5 10 10 10 6 0 10 -4 10
-10z"/>
<path d="M529 3523 c-11 -13 -11 -15 -1 -9 8 5 19 1 27 -10 12 -16 14 -17 15
-3 0 9 -6 22 -14 28 -10 9 -17 7 -27 -6z"/>
<path d="M1903 3523 c9 -9 20 -13 24 -9 4 4 1 11 -7 16 -25 16 -35 11 -17 -7z"/>
<path d="M2037 3523 c-4 -3 -7 -13 -7 -22 1 -13 3 -13 11 2 11 19 8 33 -4 20z"/>
<path d="M77 3509 c7 -7 15 -10 18 -7 3 3 -2 9 -12 12 -14 6 -15 5 -6 -5z"/>
<path d="M474 3509 c-7 -13 35 -50 50 -46 6 2 12 9 14 16 3 9 -2 11 -17 6 -12
-3 -21 -3 -20 2 5 30 -12 45 -27 22z"/>
<path d="M985 3509 c-10 -15 3 -25 16 -12 7 7 7 13 1 17 -6 3 -14 1 -17 -5z"/>
<path d="M915 3501 c-3 -5 -1 -11 4 -13 4 -1 12 -14 16 -28 6 -20 5 -23 -6
-12 -20 18 -31 15 -20 -7 6 -10 22 -22 35 -25 15 -4 23 -12 21 -19 -3 -7 4
-12 20 -12 l24 0 -29 25 c-19 16 -27 29 -21 35 6 6 1 20 -14 37 -13 16 -26 24
-30 19z"/>
<path d="M1210 3485 c-7 -8 -16 -12 -21 -9 -5 3 -9 0 -9 -5 0 -6 5 -11 10 -11
18 0 10 -22 -10 -27 -11 -3 -17 -9 -14 -14 3 -5 0 -18 -6 -29 -9 -16 -8 -18 5
-14 17 7 41 44 37 57 -1 5 7 11 18 14 13 3 20 14 20 29 0 27 -12 31 -30 9z"/>
<path d="M1864 3488 c-16 -23 -10 -53 11 -56 16 -3 18 -1 8 9 -7 7 -13 21 -13
30 0 10 6 20 13 22 7 4 8 6 1 6 -6 1 -16 -5 -20 -11z"/>
<path d="M765 3480 c3 -5 8 -10 11 -10 2 0 4 5 4 10 0 6 -5 10 -11 10 -5 0 -7
-4 -4 -10z"/>
<path d="M56 3465 c4 -9 15 -20 26 -26 20 -11 20 -11 2 15 -21 28 -37 34 -28
11z"/>
<path d="M593 3445 c6 -19 14 -35 19 -35 4 0 8 -7 8 -15 0 -19 -10 -19 -36 4
-16 13 -20 25 -17 44 3 15 1 27 -5 27 -6 0 -8 -8 -5 -19 3 -10 0 -22 -6 -25
-6 -4 -11 -2 -11 4 0 7 -6 8 -19 0 -16 -8 -20 -6 -23 7 -2 9 -13 17 -25 18
-28 2 -29 -3 -6 -21 10 -7 15 -16 11 -20 -4 -4 -14 -1 -23 6 -9 7 -18 11 -20
8 -7 -7 20 -59 31 -61 5 -1 8 -7 6 -14 -5 -23 25 -14 32 10 6 20 7 21 19 5 12
-15 14 -15 25 3 14 22 32 25 32 5 0 -21 21 -31 31 -15 12 19 19 7 21 -34 1
-20 5 -34 10 -31 5 3 16 0 25 -8 15 -12 15 -11 5 8 -12 22 -6 64 10 64 5 0 6
5 3 10 -4 6 -10 8 -15 5 -4 -3 -6 4 -3 15 4 15 0 20 -16 20 -18 0 -20 4 -15
25 5 20 1 26 -21 35 -14 5 -28 10 -30 10 -2 0 2 -16 8 -35z"/>
<path d="M857 3460 c3 -11 9 -20 15 -20 5 0 4 9 -2 20 -6 11 -12 20 -14 20 -2
0 -2 -9 1 -20z"/>
<path d="M1730 3469 c0 -12 29 -18 36 -8 3 6 12 8 20 5 8 -3 14 -1 14 4 0 5
-16 8 -35 7 -19 -1 -35 -5 -35 -8z"/>
<path d="M1895 3470 c3 -5 8 -10 11 -10 2 0 4 5 4 10 0 6 -5 10 -11 10 -5 0
-7 -4 -4 -10z"/>
<path d="M135 3460 c3 -5 8 -10 11 -10 2 0 4 5 4 10 0 6 -5 10 -11 10 -5 0 -7
-4 -4 -10z"/>
<path d="M993 3454 c-3 -8 1 -23 10 -32 17 -17 57 -24 57 -10 0 4 -7 8 -15 8
-8 0 -15 5 -15 11 0 5 5 7 10 4 6 -3 10 -2 10 3 0 5 -11 14 -25 20 -21 10 -27
9 -32 -4z"/>
<path d="M1381 3445 c-17 -17 -21 -27 -14 -39 8 -14 11 -13 24 11 7 15 18 31
23 34 4 4 4 9 0 11 -5 3 -20 -5 -33 -17z"/>
<path d="M785 3450 c-3 -5 -1 -10 4 -10 6 0 11 5 11 10 0 6 -2 10 -4 10 -3 0
-8 -4 -11 -10z"/>
<path d="M1657 3452 c-8 -12 5 -62 14 -56 5 3 12 -1 15 -10 3 -8 15 -14 25
-13 19 1 19 2 3 14 -10 7 -22 13 -27 13 -5 0 -7 7 -3 15 3 8 0 14 -7 12 -7 -1
-11 6 -9 16 3 17 -3 23 -11 9z"/>
<path d="M1770 3440 c0 -5 5 -10 11 -10 5 0 7 5 4 10 -3 6 -8 10 -11 10 -2 0
-4 -4 -4 -10z"/>
<path d="M1461 3421 c-9 -6 -11 -15 -6 -27 4 -11 7 -28 6 -39 -2 -20 -1 -20
14 -1 8 11 15 14 15 8 0 -7 4 -12 9 -12 6 0 9 9 8 20 -1 11 -5 20 -9 20 -4 0
-8 9 -8 20 0 22 -7 25 -29 11z"/>
<path d="M1405 3399 c-5 -14 -2 -25 6 -30 19 -12 29 -11 29 2 0 5 -4 7 -10 4
-5 -3 -10 -2 -10 4 0 5 5 11 11 13 7 2 6 8 -4 16 -13 11 -16 9 -22 -9z"/>
<path d="M216 3401 c5 -5 18 -11 29 -14 16 -4 14 -5 -6 -6 -30 -1 -47 -29 -24
-37 20 -8 70 47 53 58 -18 11 -64 10 -52 -1z"/>
<path d="M2095 3400 c-3 -5 1 -10 10 -10 9 0 13 5 10 10 -3 6 -8 10 -10 10 -2
0 -7 -4 -10 -10z"/>
<path d="M1762 3371 c-6 -17 -7 -31 -2 -31 15 0 29 35 21 49 -6 9 -12 4 -19
-18z"/>
<path d="M916 3350 c-10 -23 -15 -44 -12 -47 3 -4 6 -1 6 6 0 7 10 21 21 30
17 13 20 22 12 34 -7 15 -12 11 -27 -23z"/>
<path d="M1326 3374 c-4 -9 -4 -19 -1 -22 2 -3 7 3 11 12 4 9 4 19 1 22 -2 3
-7 -3 -11 -12z"/>
<path d="M72 3371 c-11 -7 -11 -9 2 -14 10 -4 16 -1 16 8 0 17 -1 17 -18 6z"/>
<path d="M1179 3364 c-12 -15 -11 -16 9 -10 28 9 28 -1 0 -23 -15 -12 -18 -20
-10 -25 7 -4 12 -2 12 4 0 6 5 8 10 5 6 -3 13 1 16 9 8 20 24 21 24 1 0 -23
27 -29 45 -11 19 19 12 21 -17 5 -16 -9 -19 -8 -16 2 5 15 -14 39 -31 39 -6 0
-11 5 -11 10 0 15 -16 12 -31 -6z"/>
<path d="M1256 3366 c3 -9 11 -16 16 -16 13 0 5 23 -10 28 -7 2 -10 -2 -6 -12z"/>
<path d="M430 3361 c0 -5 7 -15 17 -22 15 -13 15 -12 4 9 -12 23 -21 28 -21
13z"/>
<path d="M1015 3360 c3 -5 8 -10 11 -10 2 0 4 5 4 10 0 6 -5 10 -11 10 -5 0
-7 -4 -4 -10z"/>
<path d="M978 3353 c7 -3 16 -2 19 1 4 3 -2 6 -13 5 -11 0 -14 -3 -6 -6z"/>
<path d="M1640 3349 c0 -5 5 -7 10 -4 6 3 10 8 10 11 0 2 -4 4 -10 4 -5 0 -10
-5 -10 -11z"/>
<path d="M252 3334 c-11 -12 -11 -18 -2 -29 10 -12 9 -15 -3 -15 -8 0 -22 12
-32 26 -9 14 -19 23 -23 20 -3 -4 0 -12 6 -18 7 -7 12 -17 12 -22 0 -6 -5 -4
-10 4 -9 13 -11 13 -20 0 -16 -25 -12 -30 25 -30 20 0 35 -5 35 -12 0 -6 6 -3
14 8 13 16 18 17 35 7 29 -18 30 -17 28 17 -1 17 -8 30 -15 30 -7 0 -15 7 -18
15 -8 19 -15 18 -32 -1z m33 -14 c3 -5 -1 -10 -9 -10 -9 0 -16 5 -16 10 0 6 4
10 9 10 6 0 13 -4 16 -10z"/>
<path d="M1085 3340 c-3 -5 0 -7 8 -4 8 3 21 -6 31 -21 10 -15 20 -25 23 -22
5 6 -37 57 -48 57 -4 0 -11 -4 -14 -10z"/>
<path d="M1010 3329 c0 -5 5 -7 10 -4 6 3 10 8 10 11 0 2 -4 4 -10 4 -5 0 -10
-5 -10 -11z"/>
<path d="M1401 3316 c12 -26 5 -61 -10 -52 -5 3 -12 -2 -16 -12 -11 -26 -13
-82 -3 -88 4 -3 8 0 8 6 0 15 26 40 42 40 10 0 10 3 -2 9 -8 6 -18 7 -22 5
-16 -10 -7 9 17 38 31 37 31 42 0 62 -24 16 -25 16 -14 -8z"/>
<path d="M1530 3321 c-12 -24 -13 -34 -1 -27 9 6 22 46 15 46 -2 0 -8 -9 -14
-19z"/>
<path d="M1925 3330 c-3 -5 -2 -10 4 -10 5 0 13 5 16 10 3 6 2 10 -4 10 -5 0
-13 -4 -16 -10z"/>
<path d="M157 3323 c-4 -3 -7 -11 -7 -17 0 -6 5 -5 12 2 6 6 9 14 7 17 -3 3
-9 2 -12 -2z"/>
<path d="M990 3315 c0 -8 4 -15 10 -15 5 0 7 7 4 15 -4 8 -8 15 -10 15 -2 0
-4 -7 -4 -15z"/>
<path d="M1325 3319 c-18 -7 -18 -8 -2 -8 14 -1 17 -6 12 -21 -8 -25 7 -26 28
-2 15 16 15 19 -1 28 -10 6 -26 8 -37 3z"/>
<path d="M930 3310 c0 -5 5 -10 10 -10 6 0 10 5 10 10 0 6 -4 10 -10 10 -5 0
-10 -4 -10 -10z"/>
<path d="M540 3300 c0 -5 5 -10 11 -10 5 0 7 5 4 10 -3 6 -8 10 -11 10 -2 0
-4 -4 -4 -10z"/>
<path d="M727 3283 c-16 -16 -15 -18 15 -30 25 -11 33 -11 40 -1 12 19 10 28
-7 28 -8 0 -15 5 -15 10 0 15 -14 12 -33 -7z"/>
<path d="M964 3276 c-1 -14 1 -25 5 -24 3 1 14 -2 23 -6 23 -11 56 20 39 37
-8 8 -11 7 -11 -6 0 -23 -25 -21 -41 4 -14 20 -14 20 -15 -5z"/>
<path d="M1470 3286 c7 -7 13 -7 20 0 6 6 3 10 -10 10 -13 0 -16 -4 -10 -10z"/>
<path d="M1110 3275 c-8 -9 -8 -15 -2 -15 12 0 26 19 19 26 -2 2 -10 -2 -17
-11z"/>
<path d="M1170 3280 c-12 -8 -11 -10 6 -10 26 0 36 -10 24 -24 -5 -7 -5 -18 0
-26 15 -24 25 17 12 46 -13 26 -19 29 -42 14z"/>
<path d="M1244 3257 c0 -15 6 -23 14 -20 10 4 10 9 0 22 -7 9 -13 17 -14 19
-1 2 -1 -8 0 -21z"/>
<path d="M1440 3271 c0 -5 -3 -16 -6 -25 -4 -10 -1 -16 7 -16 8 0 14 11 14 25
0 14 -3 25 -7 25 -5 0 -8 -4 -8 -9z"/>
<path d="M1494 3272 c-7 -4 -8 -15 -3 -27 8 -22 8 -21 15 13 4 24 4 25 -12 14z"/>
<path d="M105 3261 c-6 -5 -18 -11 -28 -13 -17 -3 -17 -3 0 -14 15 -9 22 -7
36 12 17 23 11 34 -8 15z"/>
<path d="M880 3260 c0 -5 7 -10 16 -10 8 0 12 5 9 10 -3 6 -10 10 -16 10 -5 0
-9 -4 -9 -10z"/>
<path d="M180 3251 c0 -6 4 -13 10 -16 6 -3 7 1 4 9 -7 18 -14 21 -14 7z"/>
<path d="M823 3240 c-13 -5 -23 -15 -23 -21 0 -8 4 -8 15 1 8 6 19 9 25 5 5
-3 10 1 10 9 0 9 -1 16 -2 15 -2 0 -13 -4 -25 -9z"/>
<path d="M744 3233 c3 -6 2 -14 -4 -18 -5 -3 -10 -1 -10 5 0 6 -5 8 -11 4 -8
-5 -6 -10 6 -16 23 -14 45 7 26 25 -10 8 -12 8 -7 0z"/>
<path d="M955 3230 c3 -5 8 -10 11 -10 2 0 4 5 4 10 0 6 -5 10 -11 10 -5 0 -7
-4 -4 -10z"/>
<path d="M1264 3225 c-10 -8 -14 -15 -8 -15 6 0 17 7 24 15 16 19 9 19 -16 0z"/>
<path d="M318 3192 c-6 -15 -11 -30 -10 -34 1 -5 -3 -8 -8 -8 -5 0 -10 8 -11
18 0 10 -3 12 -6 5 -2 -7 5 -27 17 -44 l22 -30 19 30 c10 17 25 31 33 31 8 0
18 4 21 10 4 7 -2 7 -18 1 -14 -6 -28 -7 -31 -4 -3 4 -6 -1 -6 -10 0 -9 -4
-18 -8 -21 -4 -2 -6 11 -4 31 4 28 8 34 23 30 11 -3 19 -2 19 3 0 4 -9 10 -21
13 -15 4 -23 -1 -31 -21z"/>
<path d="M2 3192 c2 -10 15 -18 33 -20 37 -5 55 -19 55 -42 0 -13 -6 -17 -20
-13 -16 4 -20 0 -21 -18 -1 -21 -2 -20 -9 6 -6 25 -8 27 -15 12 -4 -10 -2 -23
5 -32 10 -12 10 -15 0 -15 -8 0 -10 -3 -7 -7 4 -3 16 2 27 12 19 18 20 17 20
-3 0 -13 -6 -22 -15 -22 -8 0 -15 -4 -15 -10 0 -13 27 -13 36 1 4 8 9 8 17 0
7 -7 14 -7 23 0 11 9 10 15 -2 35 -10 15 -14 33 -10 49 7 29 15 31 42 9 18
-15 18 -15 -11 -10 l-30 6 24 -20 c28 -24 41 -25 41 -5 0 8 5 15 10 15 6 0 10
-4 10 -10 0 -11 36 -50 46 -50 12 0 33 -35 34 -54 0 -11 3 -16 7 -13 7 8 33
-11 33 -25 0 -5 -4 -7 -8 -4 -5 3 -8 -5 -8 -17 1 -25 -38 -37 -57 -18 -8 8 -6
11 6 11 13 0 11 5 -8 26 -26 28 -32 44 -15 44 6 0 10 -5 10 -11 0 -5 5 -7 10
-4 7 4 1 16 -15 31 -15 13 -31 21 -37 18 -6 -4 -19 4 -29 17 -12 15 -19 19
-19 10 0 -8 -8 -23 -17 -33 -15 -17 -15 -19 3 -33 11 -9 31 -13 46 -11 18 4
28 0 32 -11 5 -13 4 -14 -9 -3 -12 10 -15 10 -15 -3 0 -9 9 -21 20 -27 33 -18
24 -33 -15 -27 -19 3 -35 2 -35 -4 0 -10 16 -12 67 -9 26 1 32 -2 27 -14 -3
-9 -14 -16 -24 -16 -11 0 -22 -5 -25 -10 -4 -6 -10 -8 -15 -5 -5 3 -11 1 -15
-5 -6 -10 13 -15 48 -12 16 2 21 -8 18 -35 -1 -6 3 -14 9 -18 10 -6 14 7 11
33 -1 6 3 12 9 12 5 0 10 -8 10 -18 0 -10 6 -24 13 -31 7 -8 7 -11 1 -8 -7 4
-14 -1 -17 -11 -2 -9 -8 -26 -13 -37 -7 -17 -6 -18 8 -7 9 7 22 11 29 10 10
-2 13 6 12 25 -1 15 2 27 8 27 5 0 9 -7 9 -16 0 -8 5 -12 10 -9 8 5 8 11 0 20
-11 13 -4 45 10 45 10 0 22 -48 15 -60 -10 -16 18 -59 45 -68 26 -10 27 -9 16
14 -6 13 -16 22 -23 20 -7 -3 -10 1 -7 8 3 8 1 17 -5 21 -6 3 -11 13 -11 21 0
9 5 12 12 8 7 -4 8 -3 4 5 -4 6 -4 21 0 34 7 20 8 19 19 -13 l13 -35 -2 56
c-1 51 -3 55 -23 51 -16 -3 -25 2 -30 14 -4 11 -13 25 -19 32 -10 10 -10 18 4
42 9 16 23 30 29 30 8 0 12 14 10 40 -1 24 -7 40 -14 40 -7 0 -13 5 -13 10 0
6 -6 5 -14 -2 -10 -9 -11 -17 -4 -26 8 -9 7 -11 -4 -7 -11 4 -18 -2 -22 -19
-6 -26 -26 -36 -26 -14 0 11 -69 78 -82 78 -4 0 -10 9 -13 20 -4 11 -10 18
-15 15 -11 -7 -61 35 -55 46 4 5 2 9 -3 9 -6 0 -12 -7 -16 -15 -4 -11 -11 -13
-23 -7 -10 5 -33 14 -51 20 -29 9 -33 9 -30 -6z m198 -172 c0 -5 -5 -10 -11
-10 -5 0 -7 5 -4 10 3 6 8 10 11 10 2 0 4 -4 4 -10z m130 -81 c0 -5 -4 -9 -10
-9 -5 0 -10 7 -10 16 0 8 5 12 10 9 6 -3 10 -10 10 -16z m-45 -69 c-3 -5 -13
-10 -21 -10 -8 0 -12 5 -9 10 3 6 13 10 21 10 8 0 12 -4 9 -10z m13 -26 c-7
-15 -14 -21 -16 -15 -2 7 2 18 8 26 18 22 21 18 8 -11z"/>
<path d="M770 3199 c0 -5 5 -7 10 -4 6 3 10 8 10 11 0 2 -4 4 -10 4 -5 0 -10
-5 -10 -11z"/>
<path d="M1296 3195 c-3 -9 0 -15 9 -15 16 0 20 16 6 24 -5 3 -11 -1 -15 -9z"/>
<path d="M827 3189 c13 -13 82 -19 88 -9 3 4 -2 10 -10 14 -8 3 -17 1 -20 -4
-3 -6 -16 -5 -31 0 -33 13 -41 13 -27 -1z"/>
<path d="M150 3175 c7 -9 15 -13 17 -11 7 7 -7 26 -19 26 -6 0 -6 -6 2 -15z"/>
<path d="M830 3153 c0 -5 7 -16 14 -25 12 -16 15 -16 36 7 24 25 15 36 -9 13
-11 -10 -14 -10 -18 0 -5 13 -23 17 -23 5z"/>
<path d="M770 3140 c-13 -8 -13 -10 2 -10 9 0 20 5 23 10 8 13 -5 13 -25 0z"/>
<path d="M556 3099 c-11 -10 -16 -22 -13 -26 7 -6 36 25 37 40 0 10 -2 9 -24
-14z"/>
<path d="M585 3080 c3 -5 11 -10 16 -10 6 0 7 5 4 10 -3 6 -11 10 -16 10 -6 0
-7 -4 -4 -10z"/>
<path d="M1267 3071 c-3 -12 -1 -21 3 -21 15 0 23 21 12 32 -6 6 -11 2 -15
-11z"/>
<path d="M1140 3061 c0 -5 7 -22 15 -37 l15 -29 0 31 c0 19 -6 34 -15 38 -8 3
-15 2 -15 -3z"/>
<path d="M1329 3053 c-13 -16 -12 -17 4 -4 9 7 17 15 17 17 0 8 -8 3 -21 -13z"/>
<path d="M1386 3045 c-16 -12 -17 -15 -4 -15 9 0 18 7 22 15 7 18 6 18 -18 0z"/>
<path d="M1012 3030 c-7 -11 -10 -20 -6 -20 7 0 34 27 34 34 0 13 -16 5 -28
-14z"/>
<path d="M1267 3026 c-10 -8 -14 -16 -10 -19 5 -3 14 3 21 14 14 22 13 23 -11
5z"/>
<path d="M1425 3029 c-4 -6 -5 -12 -2 -15 2 -3 7 2 10 11 7 17 1 20 -8 4z"/>
<path d="M1750 3025 c7 -9 15 -13 17 -11 7 7 -7 26 -19 26 -6 0 -6 -6 2 -15z"/>
<path d="M600 3015 c0 -9 5 -15 11 -13 6 2 11 8 11 13 0 5 -5 11 -11 13 -6 2
-11 -4 -11 -13z"/>
<path d="M1296 3015 c-3 -9 -6 -22 -5 -28 0 -7 5 -1 10 12 5 13 8 26 5 28 -2
2 -6 -3 -10 -12z"/>
<path d="M16 2994 c-9 -22 3 -32 14 -14 12 19 12 30 1 30 -5 0 -12 -7 -15 -16z"/>
<path d="M688 2985 c-3 -14 -1 -25 3 -25 5 0 9 11 9 25 0 14 -2 25 -4 25 -2 0
-6 -11 -8 -25z"/>
<path d="M728 2988 c12 -13 22 -29 22 -36 0 -6 4 -13 9 -16 5 -4 7 7 5 24 -4
25 -2 29 12 23 12 -4 15 -3 10 6 -5 7 -16 11 -26 8 -9 -2 -26 0 -36 6 -16 8
-15 6 4 -15z"/>
<path d="M625 2990 c-3 -5 -1 -10 4 -10 6 0 11 5 11 10 0 6 -2 10 -4 10 -3 0
-8 -4 -11 -10z"/>
<path d="M990 2990 c0 -6 11 -16 25 -22 19 -8 24 -16 19 -31 -4 -13 -2 -17 5
-13 16 10 14 33 -6 56 -18 21 -43 27 -43 10z"/>
<path d="M362 2978 c-14 -14 -16 -28 -3 -28 5 0 11 9 14 20 6 23 5 24 -11 8z"/>
<path d="M1103 2970 c2 -8 12 -16 23 -17 13 -2 15 -1 4 4 -8 3 -19 11 -23 17
-6 7 -7 6 -4 -4z"/>
<path d="M1247 2973 c-4 -3 -7 -11 -7 -17 0 -6 5 -5 12 2 6 6 9 14 7 17 -3 3
-9 2 -12 -2z"/>
<path d="M136 2961 c-3 -5 1 -11 9 -15 8 -3 15 -1 15 4 0 13 -18 22 -24 11z"/>
<path d="M1200 2948 c0 -9 -6 -19 -12 -21 -7 -3 -1 -6 14 -6 15 -1 32 -9 37
-18 6 -11 11 -13 11 -5 0 7 -11 25 -25 40 -19 20 -25 23 -25 10z"/>
<path d="M441 2924 c0 -11 3 -14 6 -6 3 7 2 16 -1 19 -3 4 -6 -2 -5 -13z"/>
<path d="M60 2898 c0 -9 7 -19 16 -22 15 -6 15 -4 3 11 -7 10 -15 20 -16 22
-2 2 -3 -3 -3 -11z"/>
<path d="M1120 2890 c6 -11 15 -18 21 -15 13 9 11 13 -12 25 -19 11 -20 10 -9
-10z"/>
<path d="M110 2880 c0 -5 5 -10 11 -10 5 0 7 5 4 10 -3 6 -8 10 -11 10 -2 0
-4 -4 -4 -10z"/>
<path d="M1161 2864 c0 -11 3 -14 6 -6 3 7 2 16 -1 19 -3 4 -6 -2 -5 -13z"/>
<path d="M1218 2873 c7 -3 16 -2 19 1 4 3 -2 6 -13 5 -11 0 -14 -3 -6 -6z"/>
<path d="M40 2866 c0 -2 8 -10 18 -17 15 -13 16 -12 3 4 -13 16 -21 21 -21 13z"/>
<path d="M1840 2840 c20 -13 53 -13 45 0 -3 6 -18 10 -33 10 -21 0 -24 -2 -12
-10z"/>
<path d="M120 2830 c0 -5 7 -10 16 -10 8 0 12 5 9 10 -3 6 -10 10 -16 10 -5 0
-9 -4 -9 -10z"/>
<path d="M68 2803 c6 -2 10 -9 7 -14 -4 -5 1 -6 10 -2 13 5 14 7 3 14 -7 5
-17 8 -23 8 -5 0 -4 -3 3 -6z"/>
<path d="M445 2770 c10 -11 23 -20 28 -20 6 0 2 9 -8 20 -10 11 -23 20 -28 20
-6 0 -2 -9 8 -20z"/>
<path d="M13 2768 c3 -9 1 -18 -5 -20 -6 -2 -9 -11 -6 -18 4 -12 7 -10 16 6 7
14 7 25 0 35 -8 11 -9 11 -5 -3z"/>
<path d="M174 2761 c4 -6 1 -11 -8 -11 -9 0 -16 -4 -16 -8 0 -10 42 -8 59 2
10 7 12 3 6 -15 -5 -19 -4 -21 5 -9 6 8 15 23 21 32 8 16 7 17 -14 9 -14 -6
-30 -5 -41 1 -14 8 -17 7 -12 -1z"/>
<path d="M1745 2760 c3 -5 11 -10 16 -10 6 0 7 5 4 10 -3 6 -11 10 -16 10 -6
0 -7 -4 -4 -10z"/>
<path d="M60 2735 c8 -9 10 -27 6 -47 -6 -31 -6 -31 10 -13 8 11 13 14 9 8 -3
-7 -1 -13 4 -13 6 0 11 4 11 9 0 15 -34 71 -44 71 -5 0 -3 -7 4 -15z"/>
<path d="M325 2740 c-3 -5 -3 -14 0 -20 3 -6 -1 -7 -9 -4 -9 3 -16 2 -16 -4 0
-14 36 -22 48 -10 11 11 4 48 -9 48 -4 0 -11 -4 -14 -10z"/>
<path d="M137 2704 c-4 -4 -7 -14 -7 -23 0 -11 3 -12 11 -4 6 6 10 16 7 23 -2
6 -7 8 -11 4z"/>
<path d="M0 2696 c0 -2 8 -10 18 -17 15 -13 16 -12 3 4 -13 16 -21 21 -21 13z"/>
<path d="M364 2678 c-4 -7 -3 -8 4 -4 7 4 12 1 12 -6 0 -7 12 -21 26 -32 22
-15 28 -16 35 -5 5 8 4 15 -1 17 -6 2 -10 10 -10 18 0 8 -4 14 -10 14 -5 0
-10 -5 -10 -11 0 -6 -7 -3 -16 5 -18 19 -21 19 -30 4z"/>
<path d="M450 2670 c0 -5 5 -10 11 -10 5 0 7 5 4 10 -3 6 -8 10 -11 10 -2 0
-4 -4 -4 -10z"/>
<path d="M3 2633 c0 -18 4 -33 9 -33 4 0 8 5 8 10 0 6 16 10 35 10 42 0 46
-14 7 -28 l-27 -10 28 -1 c15 -1 27 4 27 9 0 6 7 10 15 10 27 0 16 18 -15 25
-16 4 -30 11 -30 17 0 6 -10 8 -24 4 -15 -4 -26 -1 -29 7 -3 6 -5 -3 -4 -20z"/>
<path d="M810 2635 c-14 -16 -10 -18 14 -9 9 3 16 10 16 15 0 14 -16 11 -30
-6z"/>
<path d="M2888 2585 c-3 -14 -2 -25 2 -25 4 0 10 11 12 25 3 14 2 25 -2 25 -4
0 -10 -11 -12 -25z"/>
<path d="M150 2585 c-8 -9 -8 -15 -2 -15 12 0 26 19 19 26 -2 2 -10 -2 -17
-11z"/>
<path d="M193 2593 c-21 -8 -15 -22 7 -16 11 3 20 9 20 14 0 10 -8 10 -27 2z"/>
<path d="M524 2576 c-24 -21 -26 -25 -11 -26 15 0 17 -5 13 -28 -4 -16 -1 -35
7 -46 13 -17 14 -16 9 13 -3 26 -1 30 12 25 25 -9 19 8 -11 34 -18 15 -22 22
-10 18 11 -3 20 0 24 10 10 26 -4 26 -33 0z"/>
<path d="M700 2580 c0 -5 5 -10 11 -10 5 0 7 5 4 10 -3 6 -8 10 -11 10 -2 0
-4 -4 -4 -10z"/>
<path d="M1075 2575 c16 -48 24 -118 16 -134 -5 -9 -6 -22 -2 -29 4 -7 6 -31
4 -54 -2 -24 -4 -52 -4 -62 0 -10 -7 -33 -16 -50 -15 -29 -17 -29 -24 -11 -6
14 -7 10 -3 -12 4 -22 2 -33 -6 -33 -6 0 -9 -4 -5 -10 5 -9 -50 -129 -64 -140
-12 -9 -40 -74 -35 -80 3 -2 13 6 23 19 13 16 23 21 32 15 8 -5 20 -9 28 -9
17 0 28 -25 12 -25 -6 0 -11 -11 -11 -25 0 -14 5 -25 10 -25 6 0 10 5 10 11 0
5 5 7 10 4 7 -4 8 3 4 22 -7 25 -6 27 9 14 20 -16 23 1 4 21 -8 7 -11 20 -9
28 4 13 3 13 -10 2 -11 -8 -18 -9 -22 -3 -4 6 -13 8 -21 4 -20 -7 -20 21 0 37
8 7 15 19 15 26 0 19 39 57 53 51 8 -3 11 10 9 42 -2 34 0 42 7 31 6 -8 11
-13 11 -10 1 3 3 28 6 55 8 78 11 99 19 119 6 13 5 17 -2 13 -7 -4 -13 6 -16
26 -2 17 -1 34 4 35 5 2 9 25 9 50 -1 36 -7 54 -26 77 -19 21 -24 24 -19 10z"/>
<path d="M5 2560 c-3 -5 -1 -10 4 -10 6 0 11 5 11 10 0 6 -2 10 -4 10 -3 0 -8
-4 -11 -10z"/>
<path d="M100 2566 c0 -2 7 -7 16 -10 8 -3 12 -2 9 4 -6 10 -25 14 -25 6z"/>
<path d="M217 2549 c-8 -32 5 -43 29 -23 10 8 13 13 6 9 -7 -4 -15 3 -20 16
l-9 23 -6 -25z"/>
<path d="M36 2543 c-9 -23 -7 -33 7 -30 6 1 11 -5 11 -14 -1 -12 4 -15 19 -11
19 5 19 7 -9 30 -16 13 -21 22 -12 19 10 -4 20 -2 23 2 2 5 -4 11 -14 14 -12
3 -22 -1 -25 -10z"/>
<path d="M155 2530 c10 -11 20 -18 23 -16 5 6 -23 36 -34 36 -4 0 1 -9 11 -20z"/>
<path d="M790 2536 c0 -9 5 -16 10 -16 6 0 10 4 10 9 0 6 -4 13 -10 16 -5 3
-10 -1 -10 -9z"/>
<path d="M130 2500 c0 -5 7 -10 16 -10 8 0 12 5 9 10 -3 6 -10 10 -16 10 -5 0
-9 -4 -9 -10z"/>
<path d="M1 2464 c0 -11 3 -14 6 -6 3 7 2 16 -1 19 -3 4 -6 -2 -5 -13z"/>
<path d="M2480 2460 c0 -13 18 -22 24 -11 3 5 -1 11 -9 15 -8 3 -15 1 -15 -4z"/>
<path d="M170 2444 c0 -8 5 -12 10 -9 6 4 8 11 5 16 -9 14 -15 11 -15 -7z"/>
<path d="M1142 2430 c-7 -12 -8 -21 -2 -25 6 -3 10 2 10 12 0 15 2 16 10 3 8
-13 10 -13 10 2 0 25 -14 29 -28 8z"/>
<path d="M45 2430 c-3 -5 -1 -10 4 -10 6 0 11 5 11 10 0 6 -2 10 -4 10 -3 0
-8 -4 -11 -10z"/>
<path d="M90 2389 c0 -11 25 -22 39 -17 6 1 -1 8 -14 15 -14 6 -25 7 -25 2z"/>
<path d="M1000 2390 c0 -5 5 -10 10 -10 6 0 10 5 10 10 0 6 -4 10 -10 10 -5 0
-10 -4 -10 -10z"/>
<path d="M2470 2391 c0 -5 7 -12 16 -15 24 -9 27 -7 10 9 -17 17 -26 19 -26 6z"/>
<path d="M240 2370 c6 -11 16 -20 22 -20 6 0 3 9 -7 20 -10 11 -20 20 -22 20
-2 0 1 -9 7 -20z"/>
<path d="M2427 2384 c-13 -13 -7 -24 14 -24 11 0 19 5 17 12 -5 14 -22 21 -31
12z"/>
<path d="M1037 2367 c-4 -10 -7 -31 -7 -45 1 -25 1 -26 12 -7 6 11 19 26 27
33 14 11 14 11 -1 6 -11 -4 -17 1 -20 13 -3 17 -4 17 -11 0z"/>
<path d="M36 2345 c-5 -19 11 -38 26 -29 4 3 8 0 8 -5 0 -6 7 -11 15 -11 16 0
18 12 9 46 -7 28 -51 27 -58 -1z"/>
<path d="M650 2312 c0 -18 5 -32 10 -32 6 0 8 12 6 26 -7 39 -16 42 -16 6z"/>
<path d="M730 2332 c0 -5 9 -17 19 -26 11 -10 22 -29 25 -42 4 -14 11 -22 16
-19 6 4 0 23 -15 48 -23 40 -45 59 -45 39z"/>
<path d="M680 2320 c0 -5 5 -10 11 -10 5 0 7 5 4 10 -3 6 -8 10 -11 10 -2 0
-4 -4 -4 -10z"/>
<path d="M0 2304 c0 -6 7 -17 15 -24 13 -11 18 -11 28 0 10 10 9 12 -5 7 -11
-4 -21 0 -27 11 -6 9 -11 12 -11 6z"/>
<path d="M260 2291 c0 -6 5 -13 10 -16 6 -3 10 1 10 9 0 9 -4 16 -10 16 -5 0
-10 -4 -10 -9z"/>
<path d="M1200 2296 c0 -2 7 -7 16 -10 8 -3 12 -2 9 4 -6 10 -25 14 -25 6z"/>
<path d="M89 2282 c-11 -5 -14 -13 -9 -26 5 -16 8 -17 15 -5 8 12 16 40 12 38
-1 0 -9 -3 -18 -7z"/>
<path d="M2407 2284 c-4 -4 -1 -14 6 -22 10 -13 9 -14 -8 -9 -11 4 -26 3 -34
-2 -15 -9 -24 -61 -11 -61 4 0 13 -13 19 -30 5 -16 16 -30 23 -30 7 0 24 -6
38 -13 44 -22 254 -11 288 16 23 18 12 27 -36 27 -59 0 -158 19 -192 37 -17 9
-20 13 -8 13 9 0 18 5 20 10 2 6 23 14 48 19 l45 9 -67 1 c-37 1 -70 6 -73 11
-3 6 -15 10 -25 10 -10 0 -20 5 -22 11 -2 5 -7 7 -11 3z"/>
<path d="M680 2269 c0 -6 -7 -9 -15 -5 -11 4 -15 -1 -15 -19 0 -30 20 -33 27
-5 3 11 9 20 14 20 5 0 9 5 9 10 0 6 -4 10 -10 10 -5 0 -10 -5 -10 -11z"/>
<path d="M1030 2269 c0 -5 5 -7 10 -4 6 3 10 8 10 11 0 2 -4 4 -10 4 -5 0 -10
-5 -10 -11z"/>
<path d="M270 2250 c0 -5 5 -10 10 -10 6 0 10 5 10 10 0 6 -4 10 -10 10 -5 0
-10 -4 -10 -10z"/>
<path d="M1115 2252 c-2 -3 0 -13 5 -22 12 -23 50 -15 43 9 -4 15 -37 24 -48
13z"/>
<path d="M1187 2254 c-4 -4 -7 -17 -7 -28 1 -19 1 -20 11 -3 11 19 8 43 -4 31z"/>
<path d="M435 2230 c3 -5 8 -10 11 -10 2 0 4 5 4 10 0 6 -5 10 -11 10 -5 0 -7
-4 -4 -10z"/>
<path d="M1210 2225 c0 -8 7 -15 15 -15 8 0 15 7 15 15 0 8 -7 15 -15 15 -8 0
-15 -7 -15 -15z"/>
<path d="M2680 2234 c0 -8 43 -43 54 -44 5 0 -1 11 -14 25 -22 24 -40 32 -40
19z"/>
<path d="M27 2219 c-23 -13 -22 -29 2 -29 23 0 33 11 23 27 -5 8 -13 8 -25 2z"/>
<path d="M572 2215 c-44 -24 -47 -35 -4 -18 23 10 42 21 42 26 0 10 -10 8 -38
-8z"/>
<path d="M758 2213 c7 -3 16 -2 19 1 4 3 -2 6 -13 5 -11 0 -14 -3 -6 -6z"/>
<path d="M923 2200 c3 -11 1 -18 -4 -14 -10 6 -12 -26 -3 -50 3 -9 10 -16 15
-16 4 0 6 6 3 14 -3 8 -1 16 4 20 12 7 3 66 -10 66 -6 0 -8 -9 -5 -20z"/>
<path d="M71 2194 c0 -11 3 -14 6 -6 3 7 2 16 -1 19 -3 4 -6 -2 -5 -13z"/>
<path d="M104 2193 c4 -12 1 -25 -6 -31 -15 -12 -66 -11 -88 2 -9 6 -8 1 4
-12 19 -22 43 -31 31 -12 -8 13 1 13 26 -2 17 -10 23 -10 26 -1 2 7 10 10 17
7 8 -3 16 2 19 10 4 9 2 16 -3 16 -6 0 -10 6 -10 14 0 8 -5 18 -11 22 -7 4 -9
0 -5 -13z"/>
<path d="M385 2177 c11 -36 28 -48 43 -31 11 12 9 14 -9 14 -14 0 -19 5 -16
14 3 8 -1 17 -9 20 -12 5 -14 1 -9 -17z"/>
<path d="M1165 2190 c4 -6 11 -8 16 -5 14 9 11 15 -7 15 -8 0 -12 -5 -9 -10z"/>
<path d="M1204 2189 c-3 -5 1 -19 7 -31 11 -21 11 -22 -4 -9 -14 11 -18 11
-23 -4 -12 -30 3 -268 20 -315 9 -25 16 -67 16 -95 0 -62 17 -125 33 -125 9 0
10 40 4 172 -4 95 -5 225 -2 289 l6 116 -26 5 c-14 3 -28 2 -31 -3z"/>
<path d="M565 2176 c-10 -7 -19 -20 -21 -29 -2 -13 1 -14 17 -4 10 6 19 15 19
19 0 5 7 8 15 8 8 0 15 5 15 10 0 14 -23 12 -45 -4z"/>
<path d="M217 2174 c-4 -4 -7 -12 -7 -17 0 -6 3 -7 7 -4 3 4 12 -1 18 -10 11
-15 12 -14 11 7 -1 24 -17 36 -29 24z"/>
<path d="M264 2168 c2 -7 6 -21 10 -30 5 -10 1 -30 -7 -48 -9 -16 -11 -30 -6
-30 5 0 9 4 9 8 0 5 9 18 20 30 19 20 19 25 8 49 -14 28 -38 43 -34 21z"/>
<path d="M321 2158 c0 -13 3 -17 6 -10 2 6 16 12 31 12 30 0 27 5 -10 14 -24
6 -28 3 -27 -16z"/>
<path d="M480 2165 c-8 -9 -8 -15 -2 -15 12 0 26 19 19 26 -2 2 -10 -2 -17
-11z"/>
<path d="M1117 2163 c5 -13 2 -15 -13 -10 -17 6 -17 6 -3 -6 18 -14 36 -77 22
-77 -5 0 -14 5 -21 12 -9 9 -15 9 -24 0 -9 -9 -8 -12 5 -12 9 0 20 -8 26 -17
15 -27 24 -9 26 49 1 58 -3 78 -16 78 -4 0 -5 -8 -2 -17z"/>
<path d="M507 2140 c-3 -11 -1 -20 4 -20 5 0 9 9 9 20 0 11 -2 20 -4 20 -2 0
-6 -9 -9 -20z"/>
<path d="M160 2139 c0 -5 5 -7 10 -4 6 3 10 8 10 11 0 2 -4 4 -10 4 -5 0 -10
-5 -10 -11z"/>
<path d="M995 2130 c3 -5 8 -10 11 -10 2 0 4 5 4 10 0 6 -5 10 -11 10 -5 0 -7
-4 -4 -10z"/>
<path d="M445 2110 c3 -5 10 -10 16 -10 5 0 9 5 9 10 0 6 -7 10 -16 10 -8 0
-12 -4 -9 -10z"/>
<path d="M961 2104 c0 -11 3 -14 6 -6 3 7 2 16 -1 19 -3 4 -6 -2 -5 -13z"/>
<path d="M432 2080 c0 -14 2 -19 5 -12 2 6 2 18 0 25 -3 6 -5 1 -5 -13z"/>
<path d="M2480 2086 c0 -2 20 -13 45 -25 46 -22 121 -29 110 -11 -3 6 -19 10
-34 10 -16 0 -45 7 -64 15 -36 15 -57 19 -57 11z"/>
<path d="M526 2071 c-4 -7 -5 -15 -2 -18 9 -9 19 4 14 18 -4 11 -6 11 -12 0z"/>
<path d="M3052 2067 c-9 -11 -10 -17 -2 -22 15 -9 23 -1 18 21 -3 15 -4 16
-16 1z"/>
<path d="M306 2062 c-4 -7 -11 -10 -16 -7 -5 3 -11 1 -14 -4 -8 -13 25 -24 37
-12 5 5 7 15 5 22 -3 10 -6 10 -12 1z"/>
<path d="M1050 2050 c0 -5 5 -10 10 -10 6 0 10 5 10 10 0 6 -4 10 -10 10 -5 0
-10 -4 -10 -10z"/>
<path d="M631 1938 c-14 -23 -14 -23 8 -4 22 20 25 26 13 26 -4 0 -13 -10 -21
-22z"/>
<path d="M1109 1922 c-13 -23 -13 -29 -3 -29 8 0 14 9 14 19 0 29 16 21 28
-14 l11 -33 -6 35 c-9 60 -20 65 -44 22z"/>
<path d="M1080 1930 c0 -5 5 -10 11 -10 5 0 7 5 4 10 -3 6 -8 10 -11 10 -2 0
-4 -4 -4 -10z"/>
<path d="M1040 1900 c-12 -8 -9 -10 13 -10 16 0 26 4 22 10 -8 12 -16 12 -35
0z"/>
<path d="M3086 1881 c-4 -7 -5 -15 -2 -18 9 -9 19 4 14 18 -4 11 -6 11 -12 0z"/>
<path d="M3118 1880 c-6 -18 8 -50 24 -50 7 0 7 4 0 13 -5 6 -12 21 -14 32 -3
15 -5 17 -10 5z"/>
<path d="M1011 1836 c-7 -8 -8 -17 -3 -20 6 -3 12 3 15 14 6 24 4 25 -12 6z"/>
<path d="M1037 1813 c-4 -3 -7 -11 -7 -17 0 -6 5 -5 12 2 6 6 9 14 7 17 -3 3
-9 2 -12 -2z"/>
<path d="M1315 1810 c-3 -5 -1 -10 4 -10 6 0 11 5 11 10 0 6 -2 10 -4 10 -3 0
-8 -4 -11 -10z"/>
<path d="M995 1779 c-4 -6 -5 -12 -2 -15 2 -3 7 2 10 11 7 17 1 20 -8 4z"/>
<path d="M1127 1770 c3 -11 9 -20 13 -20 5 0 6 9 3 20 -3 11 -9 20 -13 20 -5
0 -6 -9 -3 -20z"/>
<path d="M2283 1755 c-24 -21 -26 -26 -13 -35 8 -5 32 -13 53 -16 20 -4 37 -9
37 -12 0 -2 -10 -13 -22 -24 l-23 -20 35 4 c23 2 35 8 35 18 1 8 7 28 15 44
13 26 13 30 -9 47 -32 26 -74 24 -108 -6z"/>
<path d="M1085 1749 c-4 -6 -5 -12 -2 -15 2 -3 7 2 10 11 7 17 1 20 -8 4z"/>
<path d="M759 1713 c-13 -16 -12 -17 4 -4 9 7 17 15 17 17 0 8 -8 3 -21 -13z"/>
<path d="M3225 1669 c-4 -6 -5 -12 -2 -15 2 -3 7 2 10 11 7 17 1 20 -8 4z"/>
<path d="M3277 1653 c-8 -17 -1 -66 11 -70 7 -3 10 1 6 11 -3 9 -2 16 2 16 5
0 10 11 10 25 2 23 -19 36 -29 18z"/>
<path d="M640 1640 c0 -5 5 -10 11 -10 5 0 7 5 4 10 -3 6 -8 10 -11 10 -2 0
-4 -4 -4 -10z"/>
<path d="M3173 1624 c-4 -10 1 -22 10 -29 10 -7 17 -18 17 -26 0 -12 2 -12 9
0 7 11 14 9 34 -12 13 -15 30 -27 37 -27 7 0 -9 20 -35 43 -28 26 -45 49 -41
55 4 7 1 12 -9 12 -8 0 -18 -7 -22 -16z"/>
<path d="M3245 1630 c-3 -5 -1 -10 4 -10 6 0 11 5 11 10 0 6 -2 10 -4 10 -3 0
-8 -4 -11 -10z"/>
<path d="M305 1586 c-120 -78 -125 -82 -68 -59 14 5 13 0 -6 -28 -15 -23 -3
-14 37 27 32 34 65 64 73 67 11 4 11 5 -1 6 -8 0 -24 -6 -35 -13z"/>
<path d="M2897 1583 c-10 -9 -9 -23 2 -23 5 0 11 7 15 15 5 15 -5 20 -17 8z"/>
<path d="M3005 1580 c3 -5 11 -10 16 -10 6 0 7 5 4 10 -3 6 -11 10 -16 10 -6
0 -7 -4 -4 -10z"/>
<path d="M2957 1540 c-4 -16 -12 -30 -18 -30 -7 0 -9 9 -5 26 5 17 3 23 -4 19
-5 -3 -10 -13 -10 -21 0 -8 -5 -14 -10 -14 -6 0 -8 -11 -4 -25 5 -19 2 -25
-11 -25 -13 0 -15 -3 -6 -13 13 -16 5 -27 -19 -27 -12 0 -19 -17 -28 -72 -16
-102 -21 -199 -12 -223 4 -11 3 -28 -2 -37 -5 -10 -5 -18 0 -18 15 0 40 66 35
94 -4 17 1 33 12 46 15 16 16 31 11 92 -7 65 -5 76 13 97 11 13 23 32 26 42 8
25 26 24 32 -1 4 -14 14 -20 32 -20 24 0 26 4 27 40 1 38 0 39 -25 33 l-26 -6
24 27 c27 28 26 30 -5 40 -18 5 -22 1 -27 -24z"/>
<path d="M3168 1543 c-3 -12 -3 -24 0 -27 9 -10 42 -7 42 4 0 6 -6 10 -14 10
-8 0 -16 8 -18 18 -3 14 -5 13 -10 -5z"/>
<path d="M1192 1510 c0 -14 2 -19 5 -12 2 6 2 18 0 25 -3 6 -5 1 -5 -13z"/>
<path d="M3030 1522 c0 -5 7 -15 15 -22 8 -7 15 -8 15 -2 0 5 -7 15 -15 22 -8
7 -15 8 -15 2z"/>
<path d="M1180 1475 c0 -3 8 -14 17 -25 19 -21 43 -27 43 -9 0 5 -4 8 -8 5 -5
-3 -15 4 -22 15 -13 17 -30 26 -30 14z"/>
<path d="M370 1460 c0 -5 5 -10 10 -10 6 0 10 5 10 10 0 6 -4 10 -10 10 -5 0
-10 -4 -10 -10z"/>
<path d="M452 1440 c0 -19 2 -27 5 -17 2 9 2 25 0 35 -3 9 -5 1 -5 -18z"/>
<path d="M3045 1460 c-3 -5 -1 -10 4 -10 6 0 11 5 11 10 0 6 -2 10 -4 10 -3 0
-8 -4 -11 -10z"/>
<path d="M169 1424 c-13 -15 -18 -25 -10 -22 13 4 49 48 39 48 -2 0 -15 -12
-29 -26z"/>
<path d="M2920 1421 c0 -5 5 -13 10 -16 6 -3 10 -2 10 4 0 5 -4 13 -10 16 -5
3 -10 2 -10 -4z"/>
<path d="M345 1400 c3 -5 8 -10 11 -10 2 0 4 5 4 10 0 6 -5 10 -11 10 -5 0 -7
-4 -4 -10z"/>
<path d="M540 1394 c0 -8 5 -12 10 -9 6 4 8 11 5 16 -9 14 -15 11 -15 -7z"/>
<path d="M3250 1400 c0 -5 5 -10 11 -10 5 0 7 5 4 10 -3 6 -8 10 -11 10 -2 0
-4 -4 -4 -10z"/>
<path d="M447 1393 c-4 -5 -8 -25 -9 -42 -1 -18 -5 -34 -8 -36 -8 -5 0 -85 9
-85 6 0 27 69 35 123 3 15 8 33 12 40 6 9 3 8 -8 -1 -13 -10 -17 -10 -20 0 -3
8 -7 9 -11 1z"/>
<path d="M3202 1373 c6 -7 14 -13 19 -13 5 0 9 6 9 13 0 7 -9 13 -19 13 -15 0
-17 -3 -9 -13z"/>
<path d="M110 1369 c0 -7 -7 -21 -17 -31 -9 -10 -11 -18 -6 -18 16 0 45 48 33
55 -6 3 -10 1 -10 -6z"/>
<path d="M580 1355 c-11 -13 -10 -14 4 -9 9 3 16 10 16 15 0 13 -6 11 -20 -6z"/>
<path d="M2382 1331 c-10 -28 -8 -32 18 -51 15 -11 35 -20 43 -20 9 0 19 -4
22 -10 3 -5 14 -14 24 -19 14 -8 17 -5 16 12 0 12 -4 28 -8 35 -5 6 -6 16 -3
20 7 12 -26 11 -41 0 -9 -7 -15 -3 -22 14 -5 13 -16 29 -24 36 -12 11 -17 8
-25 -17z"/>
<path d="M3250 1350 c0 -5 5 -10 11 -10 5 0 7 5 4 10 -3 6 -8 10 -11 10 -2 0
-4 -4 -4 -10z"/>
<path d="M2210 1335 c0 -8 4 -15 10 -15 5 0 7 7 4 15 -4 8 -8 15 -10 15 -2 0
-4 -7 -4 -15z"/>
<path d="M2135 1330 c-3 -5 -1 -10 4 -10 6 0 11 5 11 10 0 6 -2 10 -4 10 -3 0
-8 -4 -11 -10z"/>
<path d="M134 1320 c-12 -5 -25 -14 -29 -20 -4 -7 1 -7 15 2 18 11 23 11 36
-6 13 -19 14 -19 14 7 0 29 -3 30 -36 17z"/>
<path d="M2930 1282 c0 -10 7 -19 15 -19 8 0 15 9 15 19 0 10 -7 18 -15 18 -8
0 -15 -8 -15 -18z"/>
<path d="M18 1273 c-10 -2 -18 -12 -18 -20 0 -14 3 -14 20 2 17 15 26 28 18
24 -2 -1 -11 -3 -20 -6z"/>
<path d="M324 1273 c9 -17 -12 -27 -29 -13 -9 8 -20 8 -31 2 -13 -7 -11 -10
15 -15 17 -4 38 -4 46 -1 18 7 19 0 5 -27 -6 -11 -7 -19 -1 -19 5 0 11 7 15
15 3 8 12 15 20 15 8 0 18 5 22 11 4 7 -1 10 -12 7 -11 -2 -27 6 -37 17 -10
11 -16 15 -13 8z"/>
<path d="M642 1270 c0 -22 16 -67 17 -50 1 8 5 21 10 29 8 13 12 13 26 1 16
-13 53 -25 42 -13 -3 2 -7 3 -9 1 -3 -1 -12 5 -22 15 -20 20 -46 23 -47 5 0
-7 -4 -4 -9 7 -5 12 -8 14 -8 5z"/>
<path d="M3080 1269 c0 -5 5 -7 10 -4 6 3 10 8 10 11 0 2 -4 4 -10 4 -5 0 -10
-5 -10 -11z"/>
<path d="M790 1256 c0 -2 8 -10 18 -17 15 -13 16 -12 3 4 -13 16 -21 21 -21
13z"/>
<path d="M113 1243 c3 -5 -9 -25 -28 -43 -19 -18 -32 -37 -29 -41 2 -4 -1 -11
-7 -15 -8 -4 -9 -3 -5 4 4 7 3 12 -2 12 -9 0 -42 -63 -42 -81 0 -12 49 22 50
35 0 5 15 29 33 55 47 66 49 69 36 77 -7 4 -9 3 -6 -3z"/>
<path d="M180 1240 c20 -13 50 -13 50 0 0 6 -15 10 -32 10 -25 0 -29 -3 -18
-10z"/>
<path d="M150 1219 c0 -5 5 -7 10 -4 6 3 10 8 10 11 0 2 -4 4 -10 4 -5 0 -10
-5 -10 -11z"/>
<path d="M370 1204 c0 -8 5 -12 10 -9 6 4 8 11 5 16 -9 14 -15 11 -15 -7z"/>
<path d="M428 1210 c-8 -23 -28 -96 -28 -104 0 -3 5 -6 12 -6 6 0 8 3 5 7 -4
3 2 20 12 37 12 21 16 39 11 56 -5 18 -9 21 -12 10z"/>
<path d="M250 1200 c0 -5 5 -10 11 -10 5 0 7 5 4 10 -3 6 -8 10 -11 10 -2 0
-4 -4 -4 -10z"/>
<path d="M285 1200 c3 -5 11 -10 16 -10 6 0 7 5 4 10 -3 6 -11 10 -16 10 -6 0
-7 -4 -4 -10z"/>
<path d="M1280 1169 c0 -5 5 -7 10 -4 6 3 10 8 10 11 0 2 -4 4 -10 4 -5 0 -10
-5 -10 -11z"/>
<path d="M462 1150 c-18 -29 -15 -38 4 -12 9 13 14 25 12 27 -2 2 -9 -5 -16
-15z"/>
<path d="M123 1115 c0 -8 4 -15 9 -15 4 0 8 4 8 9 0 6 -4 12 -8 15 -5 3 -9 -1
-9 -9z"/>
<path d="M223 1085 c-9 -24 1 -27 15 -5 8 13 8 20 2 20 -6 0 -13 -7 -17 -15z"/>
<path d="M495 1089 c-4 -6 -4 -13 -1 -16 3 -4 6 -1 6 6 0 7 5 9 12 5 7 -4 8
-3 4 4 -9 15 -13 15 -21 1z"/>
<path d="M1050 1080 c0 -5 6 -10 14 -10 8 0 16 -5 18 -12 3 -7 10 -8 17 -3 10
6 8 11 -10 21 -29 16 -39 17 -39 4z"/>
<path d="M401 1063 c-1 -29 9 -54 20 -47 5 3 9 14 9 25 0 11 -4 18 -9 14 -5
-3 -12 3 -14 12 -4 14 -5 13 -6 -4z"/>
<path d="M3675 1070 c-3 -5 -1 -10 4 -10 6 0 11 5 11 10 0 6 -2 10 -4 10 -3 0
-8 -4 -11 -10z"/>
<path d="M650 1059 c0 -5 5 -7 10 -4 6 3 10 8 10 11 0 2 -4 4 -10 4 -5 0 -10
-5 -10 -11z"/>
<path d="M2825 1060 c-3 -5 -1 -10 4 -10 6 0 11 5 11 10 0 6 -2 10 -4 10 -3 0
-8 -4 -11 -10z"/>
<path d="M310 1050 c0 -5 5 -10 11 -10 5 0 7 5 4 10 -3 6 -8 10 -11 10 -2 0
-4 -4 -4 -10z"/>
<path d="M351 1024 c0 -11 3 -14 6 -6 3 7 2 16 -1 19 -3 4 -6 -2 -5 -13z"/>
<path d="M800 1015 c-14 -16 -3 -20 19 -6 8 5 9 11 3 15 -5 3 -15 -1 -22 -9z"/>
<path d="M1026 1003 c-6 -14 -5 -15 5 -6 7 7 10 15 7 18 -3 3 -9 -2 -12 -12z"/>
<path d="M315 999 c-11 -17 1 -21 15 -4 8 9 8 15 2 15 -6 0 -14 -5 -17 -11z"/>
<path d="M425 999 c-4 -6 -13 -8 -21 -5 -8 3 -15 2 -15 -2 -1 -4 -3 -16 -4
-27 -2 -11 -6 -29 -11 -39 -5 -14 -4 -17 4 -12 7 4 12 14 12 22 0 8 4 14 8 14
4 0 16 14 25 30 16 27 17 45 2 19z"/>
<path d="M767 948 c-12 -29 -12 -34 1 -44 18 -13 55 -7 46 8 -3 5 -14 6 -25 3
-20 -7 -23 2 -13 30 5 12 9 13 14 5 5 -8 10 -8 14 -2 3 5 -1 15 -9 22 -12 10
-17 6 -28 -22z"/>
<path d="M1070 959 c0 -5 5 -7 10 -4 6 3 10 8 10 11 0 2 -4 4 -10 4 -5 0 -10
-5 -10 -11z"/>
<path d="M81 951 c-7 -5 -12 -14 -10 -20 2 -6 10 -2 17 9 14 22 13 23 -7 11z"/>
<path d="M950 949 c0 -5 5 -7 10 -4 6 3 10 8 10 11 0 2 -4 4 -10 4 -5 0 -10
-5 -10 -11z"/>
<path d="M3636 945 c-10 -7 -16 -20 -13 -27 4 -10 6 -10 6 0 1 6 8 12 16 12 8
0 15 7 15 15 0 18 0 18 -24 0z"/>
<path d="M946 921 c-4 -7 -5 -15 -2 -18 9 -9 19 4 14 18 -4 11 -6 11 -12 0z"/>
<path d="M3689 908 c4 -12 19 -29 32 -37 22 -15 22 -14 -5 22 -33 43 -39 46
-27 15z"/>
<path d="M2664 863 c-39 -61 -56 -126 -68 -263 -7 -71 -72 -291 -88 -298 -5
-2 -8 -14 -8 -26 0 -12 -7 -32 -16 -44 -8 -12 -12 -22 -9 -22 3 0 1 -10 -6
-21 -6 -12 -12 -59 -13 -105 l-3 -84 673 0 674 0 0 160 0 159 -73 35 c-40 20
-77 36 -81 36 -4 0 -44 16 -88 35 -78 35 -433 156 -554 190 -57 16 -63 20 -94
73 -39 66 -83 118 -156 185 l-53 48 -37 -58z m287 -260 c13 -16 12 -17 -3 -4
-10 7 -18 15 -18 17 0 8 8 3 21 -13z"/>
<path d="M581 884 c0 -11 3 -14 6 -6 3 7 2 16 -1 19 -3 4 -6 -2 -5 -13z"/>
<path d="M3750 889 c0 -5 5 -7 10 -4 6 3 10 8 10 11 0 2 -4 4 -10 4 -5 0 -10
-5 -10 -11z"/>
<path d="M370 877 c0 -8 -3 -22 -6 -31 -3 -9 -1 -16 5 -16 6 0 11 10 11 23 0
18 2 19 10 7 5 -8 10 -10 10 -4 0 6 -7 17 -15 24 -12 10 -15 10 -15 -3z"/>
<path d="M3102 865 c0 -16 2 -22 5 -12 2 9 2 23 0 30 -3 6 -5 -1 -5 -18z"/>
<path d="M3356 861 c-4 -5 3 -7 14 -4 23 6 26 13 6 13 -8 0 -17 -4 -20 -9z"/>
<path d="M366 804 c-9 -24 -2 -26 12 -4 7 11 8 20 3 20 -5 0 -12 -7 -15 -16z"/>
<path d="M430 810 c-8 -5 -11 -12 -7 -16 4 -4 13 -2 19 4 15 15 7 24 -12 12z"/>
<path d="M3160 800 c0 -13 5 -20 13 -17 6 2 12 10 12 17 0 7 -6 15 -12 18 -8
2 -13 -5 -13 -18z"/>
<path d="M3030 780 c0 -11 4 -20 8 -20 4 0 8 9 8 20 0 11 -4 20 -8 20 -4 0 -8
-9 -8 -20z"/>
<path d="M3400 779 c0 -5 5 -7 10 -4 6 3 10 8 10 11 0 2 -4 4 -10 4 -5 0 -10
-5 -10 -11z"/>
<path d="M460 761 c0 -6 4 -13 10 -16 6 -3 7 1 4 9 -7 18 -14 21 -14 7z"/>
<path d="M3070 766 c0 -9 40 -13 46 -5 3 5 -6 9 -20 9 -14 0 -26 -2 -26 -4z"/>
<path d="M346 734 c-11 -28 -6 -50 15 -73 16 -17 18 -26 10 -34 -6 -6 -11 -18
-11 -26 1 -12 4 -11 12 4 12 19 13 18 19 -10 5 -18 7 2 6 52 -1 44 -5 79 -10
76 -4 -2 -10 3 -13 11 -8 20 -20 20 -28 0z m24 -34 c0 -11 -4 -20 -10 -20 -5
0 -10 9 -10 20 0 11 5 20 10 20 6 0 10 -9 10 -20z"/>
<path d="M440 730 c0 -5 5 -10 10 -10 6 0 10 5 10 10 0 6 -4 10 -10 10 -5 0
-10 -4 -10 -10z"/>
<path d="M713 720 c-3 -12 -14 -20 -26 -20 -15 0 -18 -3 -10 -11 14 -14 53 10
53 33 0 24 -11 23 -17 -2z"/>
<path d="M3330 721 c0 -5 5 -13 10 -16 6 -3 10 -2 10 4 0 5 -4 13 -10 16 -5 3
-10 2 -10 -4z"/>
<path d="M452 690 c-8 -13 -8 -20 -2 -20 6 0 13 7 17 15 9 24 -1 27 -15 5z"/>
<path d="M435 649 c-4 -6 -5 -12 -2 -15 2 -3 7 2 10 11 7 17 1 20 -8 4z"/>
<path d="M3600 634 c0 -8 5 -12 10 -9 6 3 10 10 10 16 0 5 -4 9 -10 9 -5 0
-10 -7 -10 -16z"/>
<path d="M341 614 c0 -11 3 -14 6 -6 3 7 2 16 -1 19 -3 4 -6 -2 -5 -13z"/>
<path d="M724 596 c-3 -9 -10 -14 -14 -11 -5 3 -19 0 -32 -5 -22 -10 -22 -10
4 -5 16 3 28 0 30 -7 3 -8 10 -4 17 10 7 13 10 26 7 29 -3 3 -8 -2 -12 -11z"/>
<path d="M275 580 c11 -5 27 -9 35 -9 13 -1 13 0 0 9 -8 5 -24 9 -35 9 l-20 0
20 -9z"/>
<path d="M570 560 c0 -6 7 -10 15 -10 8 0 15 2 15 4 0 2 -7 6 -15 10 -8 3 -15
1 -15 -4z"/>
<path d="M270 540 c0 -5 5 -10 11 -10 5 0 7 5 4 10 -3 6 -8 10 -11 10 -2 0 -4
-4 -4 -10z"/>
<path d="M570 490 c0 -5 5 -10 10 -10 6 0 10 5 10 10 0 6 -4 10 -10 10 -5 0
-10 -4 -10 -10z"/>
<path d="M167 475 c-16 -11 -15 -12 8 -12 28 0 42 12 22 20 -7 3 -21 -1 -30
-8z"/>
<path d="M264 472 c-18 -13 -18 -14 4 -7 12 3 22 2 22 -3 0 -5 7 -9 15 -9 19
0 19 -1 -3 18 -17 14 -21 14 -38 1z"/>
<path d="M325 470 c3 -5 10 -10 16 -10 5 0 9 5 9 10 0 6 -7 10 -16 10 -8 0
-12 -4 -9 -10z"/>
<path d="M3490 471 c0 -13 27 -21 45 -15 8 4 21 1 29 -5 10 -8 16 -8 25 3 16
19 -3 25 -46 15 -18 -4 -33 -3 -33 2 0 5 -4 9 -10 9 -5 0 -10 -4 -10 -9z"/>
<path d="M36 455 c-3 -8 -1 -15 4 -15 6 0 10 7 10 15 0 8 -2 15 -4 15 -2 0 -6
-7 -10 -15z"/>
<path d="M3677 449 c7 -7 15 -10 18 -7 3 3 -2 9 -12 12 -14 6 -15 5 -6 -5z"/>
<path d="M3735 440 c28 -12 65 -12 65 0 0 6 -19 10 -42 9 -33 0 -38 -2 -23 -9z"/>
<path d="M3700 420 l-25 -8 28 -1 c15 -1 27 4 27 9 0 6 -1 10 -2 9 -2 -1 -14
-5 -28 -9z"/>
<path d="M3740 410 c0 -5 8 -10 18 -10 10 0 23 -5 30 -12 9 -9 12 -8 12 4 0
16 -20 28 -46 28 -8 0 -14 -4 -14 -10z"/>
<path d="M44 323 c10 -10 46 -11 46 -1 0 4 -12 8 -27 8 -14 0 -23 -3 -19 -7z"/>
</g>
</svg>
